<svg width="683" height="683" viewBox="0 0 683 683" fill="none" xmlns="http://www.w3.org/2000/svg">
<g clip-path="url(#clip0_1462_5886)">
<path d="M308.667 1.46673C202.4 12.2667 108.533 70.5334 51.7333 160.933C-10.9334 260.533 -16.9334 388.267 35.9999 493.6C96.2666 613.467 220.4 687.333 353.333 682.133C404.8 680.267 448.533 669.2 493.333 646.8C574.667 606.133 636.933 534.267 665.333 448.267C677.6 411.2 682 382.8 682 341.333C682 301.2 677.733 272.933 666.533 238C639.867 154.533 582 84.2667 504.667 41.7334C470.133 22.6667 430 9.3334 388.667 3.20006C372.4 0.800062 325.067 -0.266605 308.667 1.46673ZM385.333 34.0001C451.067 43.3334 513.2 74.5334 560.667 122C682.4 243.733 681.867 440.667 559.467 562C490.933 629.867 394.533 662.133 300 648.533C207.467 635.2 128.8 584.4 78.6666 505.467C68.2666 488.8 54.3999 459.2 47.5999 438.667C36.6666 406 31.9999 376.267 31.9999 340.133C31.9999 204.533 120.133 85.0667 249.733 44.8001C267.467 39.2001 293.2 33.8667 310.667 32.1334C327.867 30.4001 366.667 31.3334 385.333 34.0001Z" fill="#72777A"/>
<path d="M250 199.067C249.6 200 249.467 213.6 249.6 229.333L250 258L300.8 258.667L351.733 259.333L326.533 291.2L301.467 323.067L313.733 341.2L326.133 359.333L340.667 360.133C357.2 360.933 363.333 363.2 370.4 371.2C380 382.133 379.6 400.533 369.6 411.067C365.467 415.467 358.533 419.2 352.267 420.667C344.267 422.4 328.133 421.6 320.933 419.2C312.667 416.4 301.2 405.6 298.8 398.267C297.867 395.6 296.533 393.333 295.867 393.333C294.667 393.333 244.4 422.133 242.267 424C239.2 426.667 256 451.467 266.933 460.4C286.667 476.533 309.733 484.133 339.333 484.133C388.133 484.133 423.333 461.6 436.8 422C441.6 407.867 442.8 384.933 439.467 372C433.067 347.333 418 329.2 393.733 317.2C387.6 314.133 382.667 311.6 382.667 311.333C382.667 311.2 393.467 297.333 406.667 280.533L430.667 250L430.4 224L430 198L340.267 197.6C268.267 197.333 250.4 197.6 250 199.067Z" fill="#72777A"/>
</g>
<defs>
<clipPath id="clip0_1462_5886">
<rect width="682.667" height="682.667" fill="white"/>
</clipPath>
</defs>
</svg>
