<svg width="683" height="683" viewBox="0 0 683 683" fill="none" xmlns="http://www.w3.org/2000/svg">
<g clip-path="url(#clip0_1462_5890)">
<path d="M308.667 1.46673C202.4 12.2667 108.533 70.5334 51.7333 160.933C-10.9334 260.533 -16.9334 388.267 35.9999 493.6C96.2666 613.467 220.4 687.333 353.333 682.133C404.8 680.267 448.533 669.2 493.333 646.8C574.667 606.133 636.933 534.267 665.333 448.267C677.6 411.2 682 382.8 682 341.333C682 301.2 677.733 272.933 666.533 238C639.867 154.533 582 84.2667 504.667 41.7334C470.133 22.6667 430 9.3334 388.667 3.20006C372.4 0.800062 325.067 -0.266605 308.667 1.46673ZM385.333 34.0001C451.067 43.3334 513.2 74.5334 560.667 122C682.4 243.733 681.867 440.667 559.467 562C490.933 629.867 394.533 662.133 300 648.533C207.467 635.2 128.8 584.4 78.6666 505.467C68.2666 488.8 54.3999 459.2 47.5999 438.667C36.6666 406 31.9999 376.267 31.9999 340.133C31.9999 204.533 120.133 85.0667 249.733 44.8001C267.467 39.2001 293.2 33.8667 310.667 32.1334C327.867 30.4001 366.667 31.3334 385.333 34.0001Z" fill="#72777A"/>
<path d="M266.133 198.933C265.6 200.4 254.533 356.133 254.667 358.933C254.667 359.6 277.067 360 304.4 360C353.733 360 354 360 360.8 363.2C374.133 369.333 380.8 383.067 377.467 397.733C374.933 409.2 366.267 417.6 354 420.533C345.6 422.667 327.467 421.6 319.333 418.533C310.267 415.2 301.867 407.467 298.133 398.933C296.8 395.867 295.2 393.333 294.533 393.333C293.467 393.333 242.8 422.4 240.8 424.133C240.133 424.667 241.733 428.933 244.4 433.6C262.8 466.533 295.6 484 339.067 484.133C373.333 484.133 396.533 475.6 416.8 455.467C425.6 446.667 428.667 442.533 433.067 433.333C440.533 417.6 442 410.267 442 390C442 370.4 440 361.2 432.8 346C421.733 322.533 401.2 306.8 372.8 300C364.667 298 357.2 297.333 342.8 297.333H323.733L324.533 280.267C325.067 270.933 325.867 262.267 326.133 261.067C326.8 258.933 330.667 258.667 377.733 258.4L428.667 258V228V198L347.6 197.6C283.467 197.333 266.533 197.6 266.133 198.933Z" fill="#72777A"/>
</g>
<defs>
<clipPath id="clip0_1462_5890">
<rect width="682.667" height="682.667" fill="white"/>
</clipPath>
</defs>
</svg>
