<svg xmlns="http://www.w3.org/2000/svg" width="256" height="256"><path fill-opacity=".016" d="M0 128.004v128.004l128.25-.254 128.25-.254.254-127.75L257.008 0H0v128.004m.485.496c0 70.4.119 99.053.265 63.672.146-35.38.146-92.98 0-128C.604 29.153.485 58.1.485 128.5" fill="#1976D2" fill-rule="evenodd"/><path fill-opacity=".095" d="M0 127.511v114.497l128.25-.254 128.25-.254.254-114.5.254-114.5-128.504.258L0 13.015v114.496m.483-.011c0 63.25.12 88.978.267 57.173.146-31.805.146-83.555 0-115C.603 38.228.483 64.25.483 127.5M36.267 19.087C35.805 20.853 34.72 21 22.18 21H8.594l3.906 4 3.906 4H35v7.015c0 6.841.081 7.063 3.25 8.996 4.349 2.652 5.339 2.497 11.75-1.839 5.046-3.413 5.541-4.089 6-8.196l.5-4.476 6-.752c3.3-.414 28.725-.639 56.5-.5l50.5.252-.133 3.115c-.099 2.338-3.452 7.516-13.435 20.75-7.317 9.699-13.782 17.611-14.367 17.582-.586-.03-3.99-2.482-7.565-5.451l-6.5-5.398-5.678 5.599c-5.639 5.559-5.664 5.61-3.589 7.291 1.281 1.037 2.318 3.367 2.679 6.021.323 2.38 1.083 4.492 1.688 4.693.604.2 2.217-2.688 3.584-6.419l2.485-6.783h8.53l3.901 10.387c2.145 5.712 3.9 11 3.9 11.75 0 2.282-6.724 1.746-8-.637-1.346-2.515-8-2.905-8-.469 0 .843-.592 1.759-1.315 2.036-.747.287-1.41 2.343-1.535 4.761l-.221 4.256 17.237 11.826c13.919 9.55 17.534 11.613 18.785 10.719 11.371-8.132 21.336-6.647 34.446 5.132 5.647 5.073 6.088 5.276 10.38 4.769l4.483-.53 4.365-15c2.401-8.25 4.367-15.276 4.37-15.613.003-.337-4.304-3.22-9.571-6.407-8.306-5.025-9.485-6.071-8.891-7.887.376-1.151.987-4.66 1.358-7.797.787-6.659 3.669-10.435 8.68-11.375 2.622-.492 4.268-2.046 8.496-8.016 2.884-4.073 5.64-7.405 6.124-7.405s1.923.684 3.198 1.519c1.275.836 4.747 1.623 7.715 1.75l5.396.231.276-15.967.277-15.967 4.033-4.783L251.119 17h-10.966c-10.411 0-10.94.099-10.452 1.967.509 1.943-.442 1.967-79.502 2.009l-80.017.042.536-2.048c.525-2.009.207-2.045-16.708-1.922-16.084.117-17.276.254-17.743 2.039M213 29.965c0 1.041 3.218 3.035 4.899 3.035.567 0 1.512-.9 2.101-2 .988-1.846.76-2-2.965-2-2.219 0-4.035.434-4.035.965m-55.297 40.666c-.736.735-1.007 21.728-.291 22.452.227.229 4.727.274 10 .098 9.401-.312 9.588-.366 9.588-2.75 0-2.305-.312-2.431-6-2.431-5.28 0-6-.234-6-1.948 0-1.644.817-1.995 5.25-2.25 4.574-.263 5.291-.592 5.57-2.552.298-2.102-.047-2.25-5.25-2.25-4.284 0-5.57-.346-5.57-1.5s1.285-1.5 5.566-1.5c5.483 0 5.562-.041 5.25-2.75-.314-2.735-.363-2.752-8.863-3.036-4.701-.157-8.864.03-9.25.417m26.773.71c-3.694 1.677-5.476 5.317-5.476 11.19 0 3.49.623 5.135 2.918 7.703 2.645 2.961 3.448 3.266 8.587 3.266 4.971 0 5.965-.345 8.082-2.806 3.206-3.728 3.043-5.397-.609-6.199-2.4-.527-3.389-.209-4.812 1.548-3.52 4.347-8.16-.236-6.586-6.507.805-3.207 4.007-4.22 6.425-2.032 1.333 1.207 2.73 1.494 4.928 1.011 3.669-.806 3.787-1.567.784-5.058-2.762-3.21-9.592-4.225-14.241-2.116M73.365 80.5c.003 5.5.171 7.622.373 4.716.203-2.905.201-7.405-.004-10-.206-2.594-.371-.216-.369 5.284m26.009 2c.002 6.05.167 8.396.366 5.213.199-3.182.197-8.132-.004-11-.201-2.867-.364-.263-.362 5.787M9 78.859c0 2.738-.259 5.802-.576 6.809-.456 1.452-.38 1.521.365.332 1.426-2.274 2.306-10.823 1.186-11.516-.583-.36-.975 1.397-.975 4.375M50.158 78c0 1.375.227 1.938.504 1.25.278-.687.278-1.812 0-2.5-.277-.687-.504-.125-.504 1.25m81.549 4.011c-.337 1.289-.025 1.989.887 1.989 1.545 0 1.932-2.557.52-3.43-.488-.301-1.121.347-1.407 1.441M29.079 88.583c.048 1.165.285 1.402.604.605.289-.722.253-1.585-.079-1.917-.332-.332-.568.258-.525 1.312m9.116 1.917c.02 1.65.244 2.204.498 1.231.254-.973.237-2.323-.037-3-.274-.677-.481.119-.461 1.769m20.567.207c1.244.239 3.044.23 4-.02s-.062-.446-2.262-.435c-2.2.011-2.982.216-1.738.455m27.098 22.811L79.219 120h3.423c7.648 0 14.302 5.38 16.442 13.295 1.856 6.86-1.395 21.537-7.359 33.227-6.054 11.868-12.901 17.855-21.816 19.077-14.442 1.98-27.243-11.756-25.344-27.195l.627-5.095-5.846.83a800.092 800.092 0 0 1-10.917 1.462l-5.071.632-5.07-6.366c-2.788-3.502-6-7.208-7.138-8.235l-2.068-1.868-.291 20.119-.291 20.119 3-.035c1.65-.019 6.6-.891 11-1.938 4.4-1.046 8.281-1.594 8.625-1.216 1.018 1.12 3.914 15.315 3.32 16.276-.3.486-4.798 3.849-9.996 7.472-5.197 3.624-9.449 7.17-9.449 7.88 0 1.508 3.989 11.657 5.078 12.919.606.703 5.639-.526 12.547-3.065.618-.227 3.726 1.864 6.905 4.646L45.311 228H58.55c15.581 0 13.301 1.364 28.844-17.252l9.812-11.752-1.209-8.518c-.835-5.883-.889-8.903-.176-9.763.569-.685 4.636-3.039 9.039-5.23 4.779-2.379 8.032-4.62 8.072-5.561.22-5.11 11.959-8.971 21.232-6.982 5.545 1.189 4.629 1.618 14.668-6.88 2.883-2.441 5.113-4.997 4.955-5.68-.517-2.236-27.03-32.382-28.48-32.382-.777 0-3.069 1.125-5.092 2.5-2.024 1.375-3.954 2.5-4.291 2.5-.336 0-5.294-3.596-11.018-7.991-5.723-4.395-10.856-7.987-11.406-7.982-.55.005-3.988 2.926-7.64 6.491M79.2 139.2c-1.281 1.281-1.593 5.611-.593 8.218.97 2.528 5.265 1.956 6.554-.873 2.273-4.989-2.471-10.835-5.961-7.345M213.158 164c0 1.375.227 1.938.504 1.25.278-.687.278-1.812 0-2.5-.277-.687-.504-.125-.504 1.25m-3.736 9.765c-4.297 8.006-10.181 11.629-18.756 11.548l-6.198-.058.695 7.623c.382 4.192.727 8.769.766 10.172.048 1.729-2.502 5.854-7.929 12.827-4.4 5.652-8 10.673-8 11.156 0 .484 9.16.88 20.355.88h20.354l2.786-2.908 2.786-2.908 4.11 2.82c3.71 2.546 5.008 2.838 13.359 3.002l9.25.182V198H235.277l-1.644-10.75c-.904-5.912-1.642-11.482-1.639-12.378.01-2.65-2.544-4.018-10.234-5.485-3.993-.762-7.71-1.378-8.26-1.37-.55.008-2.385 2.595-4.078 5.748" fill="#1976D2" fill-rule="evenodd"/><path fill-opacity=".317" d="M0 127.511v114.497l128.25-.254 128.25-.254.254-114.5.254-114.5-128.504.258L0 13.015v114.496m.483-.011c0 63.25.12 88.978.267 57.173.146-31.805.146-83.555 0-115C.603 38.228.483 64.25.483 127.5M20.228 15.775c-15.705.265-16.236.342-15.242 2.198.689 1.288.887 24.332.6 69.726-.236 37.29-.168 85.576.152 107.301l.58 39.5 121.341.063 121.341.063V215.92c0-15.776-.237-18.797-1.513-19.287-1.331-.51-1.508-8.922-1.474-69.922.034-60.32.237-69.623 1.557-71.507 1.218-1.74 1.49-5.33 1.38-18.271-.128-15.07-.002-16.248 1.957-18.334 1.151-1.225 2.093-2.424 2.093-2.663 0-.471-205.987-.614-232.772-.161M30 82v11h8v-4c0-3.915.076-4 3.545-4 5.025 0 8.912-3.964 8.061-8.221C48.557 71.537 47.514 71 38.378 71H30v11m23.04-2.75c-1.709 4.537-3.541 9.284-4.073 10.547C47.604 93.034 47.572 93 52 93c2.889 0 4-.417 4-1.5 0-1.076 1.099-1.5 3.893-1.5 2.538 0 4.093.522 4.469 1.5.587 1.532 7.632 2.223 7.644.75.003-.412-1.684-5.36-3.75-10.994L64.5 71.012l-4.177-.006L56.145 71l-3.105 8.25M74 82v11h7V81.658l3.779 5.421c3.284 4.711 4.267 5.462 7.5 5.731l3.721.311V71h-6.895l-.303 5.196-.302 5.195-3.5-5.17c-3.162-4.67-3.862-5.172-7.25-5.195L74 71v11m26 0v11h7.911c7.674 0 7.992-.096 10.607-3.204 2.363-2.808 2.642-3.859 2.256-8.507-.312-3.769-1.118-6.026-2.781-7.797-2.109-2.244-3.119-2.492-10.167-2.492H100v11m28.306-9.308c-.371.994-2.167 5.63-3.99 10.301-1.824 4.671-3.316 8.834-3.316 9.25 0 1.479 7.049.793 7.638-.743.376-.978 1.931-1.5 4.469-1.5 2.794 0 3.893.424 3.893 1.5 0 1.083 1.111 1.5 4 1.5 2.2 0 4-.164 4-.363 0-.2-1.752-5.038-3.894-10.75L137.211 71.5l-4.115-.308c-3.23-.242-4.259.081-4.79 1.5M158 81.961V93h9c8.933 0 9-.019 9-2.5 0-2.392-.262-2.5-6.07-2.5-5.722 0-6.051-.129-5.75-2.25.279-1.96.996-2.289 5.57-2.552 4.433-.255 5.25-.606 5.25-2.25 0-1.694-.716-1.948-5.5-1.948-4.833 0-5.5-.242-5.5-2 0-1.78.667-2 6.073-2 5.245 0 6.028-.239 5.739-1.75-.283-1.48-1.682-1.795-9.073-2.039L158 70.922v11.039m25.785-9.407c-4.485 2.434-5.89 11.888-2.458 16.533 3.394 4.591 12.286 5.391 16.218 1.458 3.045-3.045 3.095-4.371.205-5.446-1.748-.65-2.741-.308-4.452 1.532-1.211 1.303-2.642 2.369-3.179 2.369-4.23 0-5.736-9.754-1.919-12.427 1.951-1.367 2.455-1.374 4.465-.057 2.599 1.703 5.933 1.943 6.83.492.337-.545-.516-2.12-1.896-3.5-2.934-2.934-9.35-3.377-13.814-.954m23.144 1.218c-2.566 2.293-3.114 3.547-3.167 7.25-.089 6.26.929 8.767 4.259 10.489 3.322 1.718 10.228 1.961 13.034.459C223.631 90.592 226 85.814 226 82c0-3.814-2.369-8.592-4.945-9.97-1.058-.567-3.971-1.03-6.473-1.03-3.56 0-5.226.603-7.653 2.772M38 78c0 1.333.667 2 2 2s2-.667 2-2-.667-2-2-2-2 .667-2 2m70 4c0 6.124.751 7.075 3.977 5.035.911-.576 1.478-2.506 1.478-5.035 0-2.529-.567-4.459-1.478-5.035C108.751 74.925 108 75.876 108 82m103.2-4.8c-2.058 2.058-1.48 8.491.915 10.168 3.826 2.68 6.845.299 6.87-5.418.017-4.031-1.429-5.95-4.485-5.95-1.155 0-2.64.54-3.3 1.2m-79.442 3.3c-.665 3.431-.488 3.807 1.577 3.338 1.26-.286 1.299-.803.248-3.338l-1.243-3-.582 3m-72.537.5c-.756 1.939-.648 2.576.48 2.838 2.11.491 2.462-.238 1.418-2.943l-.923-2.395-.975 2.5m15.613 40.397c-8.788 3.139-20.846 14.731-26.072 25.063-7.25 14.333-3.567 30.517 8.324 36.584 4.955 2.528 13.97 2.57 19.414.09 14.791-6.736 27.629-41.407 20.229-54.634-3.998-7.148-13.31-10.169-21.895-7.103m93.666.434c-4.651 2.215-7.927 5.509-9.433 9.484-3.69 9.738 3.791 34.425 13.917 45.93 5.279 5.996 10.755 8.132 19.435 7.579 8.328-.53 12.716-3.772 17.416-12.869 3.026-5.856 3.281-7.012 2.751-12.455-.889-9.116-5.504-17.586-14.5-26.61-11.672-11.707-20.947-15.175-29.586-11.059m-88.187 15.955c-2.348 1.492-3.425 6.209-2.066 9.044 1.532 3.196 3.937 3.843 6.132 1.649 2.052-2.053 2.083-6.375.064-9.256-1.676-2.394-2.29-2.607-4.13-1.437m91.958 2.964c-1.163 3.459-.264 7.232 2.064 8.655 1.448.886 2.161.644 3.728-1.266 1.065-1.298 1.937-3.24 1.937-4.316 0-5.82-6.003-8.207-7.729-3.073m-53.106 23.556c-1.834.657-4.068 2.419-4.965 3.917-1.536 2.565-1.513 2.884.393 5.5 2.648 3.633 9.889 7.277 14.462 7.277 4.584 0 11.996-3.858 13.898-7.235 1.991-3.534.153-7.405-4.423-9.317-4.141-1.73-14.71-1.808-19.365-.142" fill="#1976D2" fill-rule="evenodd"/><path fill-opacity=".858" d="M0 127.5c0 63.158.221 114.612.492 114.342.659-.66.684-227.999.025-228.659C.233 12.899 0 64.342 0 127.5M254.241 14.986c-.969 1.551-1.234 26.279-1.209 112.75.027 95.808.23 111.026 1.5 112.705 1.293 1.711 1.468-11.692 1.468-112.75C256 64.611 255.883 13 255.741 13c-.143 0-.818.894-1.5 1.986M31 82v11h3c2.833 0 3-.222 3-4 0-3.571.261-4 2.435-4 3.103 0 7.8-1.772 8.779-3.313.416-.653.762-2.624.771-4.38C49.007 72.653 46.07 71 37.777 71H31v11m21.744-.744c-2.066 5.634-3.753 10.582-3.75 10.994.003.412 1.326.75 2.939.75 2.054 0 3.122-.599 3.567-2 .496-1.564 1.513-2 4.661-2 3.185 0 4.135.418 4.549 2 .397 1.518 1.364 2 4.014 2 2.927 0 3.376-.282 2.782-1.75-.39-.963-2.299-5.912-4.243-11L63.729 71l-3.614.006-3.615.006-3.756 10.244M75 82v11h2.95c2.89 0 2.956-.117 3.25-5.75l.3-5.75 3.892 5.75c3.215 4.751 4.388 5.75 6.75 5.75H95V83c0-5.5.112-10.338.25-10.75.138-.412-1.256-.894-3.097-1.071l-3.346-.32.346 5.572c.191 3.064.073 5.571-.261 5.57-.335 0-2.252-2.476-4.261-5.501-3.071-4.626-4.127-5.5-6.641-5.5H75v11m26 0v11h6.05c3.433 0 7.309-.652 8.963-1.507 6.105-3.157 6.105-15.829 0-18.986-1.654-.855-5.53-1.507-8.963-1.507H101v11m26.71-6.75c-.813 2.338-2.635 7.287-4.049 11L121.09 93h3.338c2.498 0 3.47-.504 3.862-2 .414-1.582 1.364-2 4.549-2 3.148 0 4.165.436 4.661 2 .445 1.401 1.513 2 3.567 2 1.613 0 2.943-.338 2.955-.75.012-.412-1.657-5.362-3.709-11L136.583 71h-3.697c-3.452 0-3.796.283-5.176 4.25m-90.043.417c-1.004 1.003-.801 4.132.312 4.82 1.37.847 5.021-1.273 5.021-2.915 0-1.952-3.895-3.343-5.333-1.905M107 82c0 5.594.156 6 2.3 6 3.258 0 4.7-1.841 4.7-6s-1.442-6-4.7-6c-2.144 0-2.3.406-2.3 6m-47.905-2.685c-1.59 4.088-1.352 5.685.846 5.685 2.639 0 2.904-.902 1.472-5l-1.223-3.5-1.095 2.815m72.191 1.104c-1.182 3.853-.864 4.581 2.006 4.581 1.672 0 1.864-.47 1.314-3.219-.956-4.78-2.124-5.259-3.32-1.362m-58.933 42.508c-2.281 1.036-7.563 5.128-11.739 9.095-12.607 11.976-17.567 24.748-14.161 36.466 3.156 10.855 12.33 17.409 22.656 16.185 9.895-1.171 15.7-6.378 22.774-20.426 3.368-6.689 7.098-20.479 7.11-26.285.01-4.875-3.809-11.992-7.891-14.704-4.341-2.885-12.795-3.034-18.749-.331m94.664-.076c-5.667 3.04-7.435 6.296-7.845 14.45-.452 9.009 1.646 17.506 6.964 28.199 4.04 8.124 9.325 14.593 13.877 16.986 6.422 3.375 17.168 2.658 23.062-1.539 1.426-1.016 4.018-4.52 5.759-7.787 2.534-4.755 3.161-7.109 3.142-11.8-.054-13.391-10.972-29.185-26.19-37.886-5.39-3.081-13.672-3.356-18.769-.623m-88.46 16.372c-3.241 4.626-1.059 11.267 3.49 10.622 3.765-.534 5.401-4.836 3.537-9.299-1.738-4.158-4.657-4.708-7.027-1.323m94.098-.394C169.318 142.517 171.223 150 175.5 150c4.218 0 6.286-8.071 2.929-11.429-2.061-2.06-3.745-1.985-5.774.258m-50.545 25.199c-8.148 1.7-10.424 6.44-5.36 11.163 4.139 3.86 6.595 4.809 12.434 4.805 5.897-.004 10.642-2.275 13.333-6.381 1.879-2.868.913-5.632-2.822-8.079-2.893-1.896-11.99-2.676-17.585-1.508" fill="#1976D2" fill-rule="evenodd"/></svg>