<svg width="16" height="16" viewBox="0 0 16 16" fill="none" xmlns="http://www.w3.org/2000/svg">
<g id="Group">
<path id="Vector" d="M8.68061 0.455756C8.21371 0.59555 8.39809 0.426012 4.36259 4.4592C0.252751 8.56973 0.48471 8.31393 0.40739 8.77198C0.362783 9.03075 0.404416 9.27464 0.535265 9.54828C0.621507 9.72674 0.862387 9.97658 3.44368 12.5553C6.022 15.137 6.2718 15.378 6.45023 15.4642C6.72382 15.5951 6.96768 15.6367 7.2264 15.5921C7.6814 15.5148 7.43159 15.7438 11.5236 11.6541C15.6007 7.57928 15.4134 7.7845 15.5472 7.28779C15.6067 7.07066 15.6096 6.99631 15.6096 4.32536C15.6096 2.61512 15.5978 1.52354 15.5799 1.42539C15.4847 0.922726 15.0744 0.512268 14.5688 0.417089C14.4707 0.399243 13.3912 0.387346 11.6574 0.390321H8.90364L8.68061 0.455756ZM12.16 2.98096C12.7548 3.15942 13.1384 3.76024 13.0521 4.37592C12.9748 4.91725 12.5258 5.36637 11.9845 5.44371C11.1548 5.5597 10.4381 4.84289 10.5541 4.01305C10.6612 3.26352 11.4374 2.76384 12.16 2.98096Z" fill="#FF7F50"/>
</g>
</svg>
