<svg width="15" height="15" viewBox="0 0 15 15" fill="none" xmlns="http://www.w3.org/2000/svg">
<g id="Q-icon / itemmaster_Card" clip-path="url(#clip0_3148_5846)">
<path id="Vector" d="M9.06171 0.351021C9.25426 0.527909 9.37163 0.772959 9.42217 1.03185C9.42513 1.10419 9.4262 1.17662 9.42618 1.24902C9.42622 1.27088 9.42625 1.29274 9.42629 1.31526C9.42638 1.38882 9.42623 1.46238 9.42609 1.53594C9.4261 1.58908 9.42613 1.64223 9.42617 1.69537C9.42624 1.84165 9.42611 1.98793 9.42595 2.13421C9.42581 2.29186 9.42586 2.44952 9.42588 2.60717C9.4259 2.8804 9.4258 3.15362 9.42561 3.42685C9.42535 3.82189 9.42526 4.21693 9.42522 4.61197C9.42515 5.25287 9.42493 5.89376 9.42463 6.53466C9.42433 7.15731 9.4241 7.77996 9.42396 8.40261C9.42395 8.46015 9.42394 8.46015 9.42393 8.51887C9.42389 8.71134 9.42385 8.9038 9.42381 9.09627C9.42347 10.6935 9.42289 12.2908 9.42217 13.888C9.64798 13.888 9.87378 13.888 10.1064 13.888C10.1064 10.6017 10.1064 7.3154 10.1064 3.92949C12.8258 3.92949 12.8258 3.92949 13.2019 4.22924C13.4473 4.48727 13.5971 4.75661 13.5969 5.12187C13.597 5.1533 13.5971 5.18472 13.5971 5.2171C13.597 5.25135 13.5969 5.28559 13.5968 5.32088C13.5969 5.37576 13.5969 5.37576 13.5969 5.43176C13.597 5.5546 13.5968 5.67743 13.5966 5.80027C13.5966 5.88824 13.5966 5.9762 13.5966 6.06417C13.5967 6.25366 13.5966 6.44316 13.5964 6.63266C13.5961 6.90664 13.596 7.18062 13.596 7.4546C13.5959 7.89913 13.5957 8.34365 13.5954 8.78817C13.5951 9.21997 13.5949 9.65177 13.5947 10.0836C13.5947 10.1235 13.5947 10.1235 13.5947 10.1642C13.5946 10.2978 13.5946 10.4313 13.5946 10.5648C13.5942 11.6726 13.5937 12.7803 13.5929 13.888C13.6235 13.8874 13.6541 13.8867 13.6855 13.8859C13.7996 13.8837 13.9136 13.882 14.0277 13.8807C14.0769 13.8801 14.1262 13.8792 14.1754 13.878C14.2464 13.8764 14.3174 13.8756 14.3884 13.875C14.4311 13.8743 14.4738 13.8736 14.5177 13.8729C14.6917 13.8952 14.7896 13.9753 14.9065 14.1045C15.0032 14.2509 15.0084 14.3784 14.994 14.5542C14.9323 14.7472 14.8477 14.8583 14.6682 14.9538C14.5474 14.9958 14.4293 14.9914 14.3026 14.9915C14.2788 14.9916 14.2549 14.9917 14.2304 14.9917C14.15 14.9919 14.0697 14.9919 13.9893 14.9918C13.9313 14.9919 13.8733 14.992 13.8153 14.9921C13.6555 14.9924 13.4958 14.9925 13.336 14.9925C13.1639 14.9925 12.9917 14.9928 12.8195 14.993C12.4429 14.9935 12.0663 14.9937 11.6897 14.9938C11.4547 14.9939 11.2196 14.9941 10.9846 14.9942C10.3341 14.9946 9.68353 14.995 9.03301 14.9951C8.99136 14.9951 8.94972 14.9951 8.90681 14.9951C8.86506 14.9951 8.82332 14.9951 8.7803 14.9951C8.69571 14.9951 8.61111 14.9951 8.52651 14.9952C8.48455 14.9952 8.44259 14.9952 8.39935 14.9952C7.71914 14.9953 7.03894 14.9959 6.35873 14.9967C5.66072 14.9975 4.96272 14.9979 4.26471 14.9979C3.87266 14.9979 3.48061 14.9981 3.08856 14.9987C2.75478 14.9992 2.421 14.9994 2.08721 14.9991C1.91686 14.999 1.74651 14.999 1.57615 14.9995C1.42024 14.9999 1.26434 14.9999 1.10843 14.9995C1.05199 14.9994 0.995546 14.9995 0.939106 14.9998C0.862426 15.0002 0.785771 14.9999 0.709092 14.9995C0.666489 14.9996 0.623886 14.9996 0.579992 14.9996C0.363568 14.9769 0.211703 14.8938 0.0705473 14.7207C-0.00177022 14.5869 -0.00738414 14.4724 0.0053792 14.321C0.0647804 14.1254 0.141137 14.0378 0.298636 13.9214C0.395023 13.8721 0.492664 13.884 0.598256 13.8848C0.621307 13.8848 0.644359 13.8849 0.668109 13.8849C0.741814 13.8851 0.815517 13.8855 0.889221 13.886C0.939158 13.8861 0.989095 13.8863 1.03903 13.8864C1.16152 13.8868 1.28401 13.8874 1.40649 13.888C1.40644 13.8658 1.40639 13.8435 1.40634 13.8206C1.40343 12.5 1.40119 11.1795 1.39984 9.85892C1.39967 9.7003 1.39951 9.54167 1.39933 9.38305C1.3993 9.35147 1.39927 9.31989 1.39923 9.28736C1.39866 8.7763 1.39764 8.26525 1.39644 7.75419C1.39522 7.22965 1.39449 6.70511 1.39423 6.18057C1.39405 5.857 1.39349 5.53344 1.39243 5.20987C1.39174 4.98787 1.39153 4.76587 1.3917 4.54387C1.39178 4.41586 1.39166 4.28786 1.39096 4.15986C1.3902 4.02084 1.39046 3.88184 1.39082 3.74282C1.39044 3.70267 1.39006 3.66253 1.38967 3.62117C1.39219 3.25523 1.48121 2.93351 1.73233 2.66385C1.88257 2.51698 2.02873 2.41925 2.22018 2.3379C2.2454 2.32682 2.27061 2.31574 2.29659 2.30433C2.63228 2.15817 2.97178 2.0213 3.31101 1.88402C3.38427 1.85426 3.45753 1.82449 3.53079 1.79471C3.72443 1.71603 3.91812 1.63749 4.11182 1.55898C4.43033 1.42987 4.74875 1.30055 5.06719 1.17126C5.14564 1.13941 5.22409 1.10756 5.30254 1.07573C5.74229 0.897278 6.18186 0.718427 6.62058 0.537354C6.68671 0.510063 6.75284 0.482801 6.81898 0.455548C7.00593 0.37849 7.19278 0.301186 7.37945 0.22344C7.44215 0.197565 7.50485 0.171701 7.56755 0.14585C7.5944 0.134542 7.62125 0.123235 7.64891 0.111584C8.17039 -0.102178 8.63298 -0.00150898 9.06171 0.351021ZM3.55704 4.58937C3.50352 4.76376 3.50159 4.89802 3.56315 5.07023C3.66193 5.22343 3.77827 5.30689 3.94805 5.36166C4.04361 5.36825 4.13607 5.37144 4.23161 5.37133C4.25982 5.37156 4.28802 5.37178 4.31709 5.37201C4.41016 5.37264 4.50322 5.37277 4.59629 5.37284C4.66118 5.37306 4.72608 5.37328 4.79097 5.37352C4.92696 5.37392 5.06295 5.37404 5.19895 5.374C5.37283 5.37399 5.54669 5.3749 5.72057 5.37605C5.85461 5.37679 5.98864 5.37692 6.12268 5.37689C6.18677 5.37697 6.25085 5.37726 6.31493 5.37778C6.40477 5.37843 6.49457 5.37824 6.5844 5.37784C6.62375 5.3784 6.62375 5.3784 6.66389 5.37897C6.84769 5.3769 6.98742 5.33289 7.14128 5.22843C7.27559 5.08411 7.31672 4.96685 7.31312 4.76631C7.29801 4.64631 7.25537 4.55008 7.17387 4.46239C6.99184 4.33475 6.86103 4.30967 6.64286 4.3114C6.59863 4.31097 6.59863 4.31097 6.5535 4.31053C6.45654 4.30977 6.35962 4.31 6.26266 4.3103C6.19494 4.31012 6.12722 4.30991 6.0595 4.30967C5.91776 4.30933 5.77602 4.30948 5.63428 4.30996C5.45302 4.31054 5.27179 4.30975 5.09053 4.30858C4.95073 4.30785 4.81094 4.3079 4.67114 4.30818C4.60433 4.3082 4.53752 4.30798 4.47071 4.30748C4.37712 4.3069 4.2836 4.30739 4.19002 4.30814C4.16267 4.30775 4.13533 4.30736 4.10716 4.30696C3.8738 4.31078 3.69432 4.39204 3.55704 4.58937ZM3.62424 6.99366C3.52303 7.14415 3.50153 7.28038 3.52446 7.45995C3.58715 7.64159 3.68502 7.73299 3.8503 7.82632C3.95234 7.84538 4.0525 7.84488 4.15602 7.84408C4.18619 7.84437 4.21636 7.84466 4.24745 7.84495C4.34685 7.84571 4.44623 7.84548 4.54563 7.84518C4.61494 7.84536 4.68425 7.84556 4.75355 7.84581C4.8987 7.84615 5.04383 7.846 5.18897 7.84551C5.37473 7.84494 5.56046 7.84572 5.74621 7.8469C5.88931 7.84763 6.0324 7.84758 6.17549 7.8473C6.24397 7.84728 6.31245 7.8475 6.38092 7.848C6.47678 7.84858 6.57257 7.84809 6.66843 7.84734C6.69655 7.84772 6.72467 7.84811 6.75365 7.84852C6.94584 7.84544 7.06745 7.79778 7.20645 7.65978C7.30804 7.50905 7.32965 7.37161 7.30421 7.1935C7.24827 7.03703 7.17985 6.95117 7.04353 6.86044C6.88115 6.79147 6.73946 6.78412 6.56675 6.78468C6.53918 6.78451 6.5116 6.78434 6.48319 6.78416C6.39241 6.7837 6.30164 6.78373 6.21086 6.78381C6.14747 6.78368 6.08409 6.78353 6.02071 6.78337C5.88798 6.78312 5.75525 6.78313 5.62252 6.78331C5.45284 6.7835 5.28317 6.78294 5.1135 6.78217C4.98262 6.78167 4.85174 6.78165 4.72086 6.78175C4.65832 6.78173 4.59578 6.78156 4.53325 6.78122C4.4456 6.78081 4.35798 6.78104 4.27034 6.78142C4.24477 6.78117 4.21921 6.78091 4.19286 6.78065C3.97794 6.78273 3.77153 6.81977 3.62424 6.99366ZM3.62832 9.49371C3.51414 9.65043 3.50159 9.76543 3.52446 9.95791C3.61249 10.1346 3.72957 10.2609 3.91546 10.3243C4.01011 10.3278 4.10398 10.3295 4.19864 10.3296C4.22758 10.3298 4.25652 10.33 4.28634 10.3302C4.38219 10.3306 4.47804 10.3309 4.57389 10.331C4.64049 10.3312 4.7071 10.3314 4.7737 10.3316C4.91342 10.332 5.05314 10.3322 5.19287 10.3323C5.3718 10.3325 5.55071 10.3333 5.72964 10.3342C5.86725 10.3348 6.00486 10.335 6.14248 10.3351C6.20844 10.3352 6.27439 10.3354 6.34035 10.3359C6.43269 10.3364 6.52502 10.3364 6.61737 10.3362C6.65813 10.3366 6.65813 10.3366 6.69972 10.3371C6.8824 10.3357 7.02344 10.3057 7.16229 10.1732C7.29675 9.99349 7.33093 9.88317 7.30421 9.65816C7.21617 9.48152 7.09909 9.35513 6.9132 9.29179C6.81855 9.28823 6.72468 9.28655 6.63002 9.28642C6.60108 9.28626 6.57214 9.28609 6.54233 9.28592C6.44647 9.28543 6.35062 9.28521 6.25477 9.28502C6.18817 9.28483 6.12157 9.28464 6.05496 9.28445C5.91524 9.2841 5.77552 9.2839 5.63579 9.28379C5.45687 9.28361 5.27795 9.28281 5.09902 9.28186C4.96141 9.28124 4.8238 9.28106 4.68618 9.28101C4.62023 9.28091 4.55427 9.28065 4.48832 9.28021C4.39597 9.27964 4.30364 9.2797 4.21129 9.27992C4.18412 9.27961 4.15694 9.2793 4.12894 9.27899C3.92686 9.28047 3.75732 9.32128 3.62832 9.49371ZM3.55704 12.05C3.50352 12.2244 3.50159 12.3586 3.56315 12.5308C3.66193 12.684 3.77827 12.7675 3.94805 12.8222C4.04361 12.8288 4.13607 12.832 4.23161 12.8319C4.25982 12.8321 4.28802 12.8324 4.31709 12.8326C4.41016 12.8332 4.50322 12.8334 4.59629 12.8334C4.66118 12.8337 4.72608 12.8339 4.79097 12.8341C4.92696 12.8345 5.06295 12.8346 5.19895 12.8346C5.37283 12.8346 5.54669 12.8355 5.72057 12.8366C5.85461 12.8374 5.98864 12.8375 6.12268 12.8375C6.18677 12.8376 6.25085 12.8379 6.31493 12.8384C6.40477 12.839 6.49457 12.8388 6.5844 12.8384C6.62375 12.839 6.62375 12.839 6.66389 12.8396C6.84769 12.8375 6.98742 12.7935 7.14128 12.689C7.27559 12.5447 7.31672 12.4274 7.31312 12.2269C7.29801 12.1069 7.25537 12.0107 7.17387 11.923C6.99184 11.7953 6.86103 11.7703 6.64286 11.772C6.59863 11.7716 6.59863 11.7716 6.5535 11.7711C6.45654 11.7704 6.35962 11.7706 6.26266 11.7709C6.19494 11.7707 6.12722 11.7705 6.0595 11.7703C5.91776 11.7699 5.77602 11.7701 5.63428 11.7706C5.45302 11.7711 5.27179 11.7703 5.09053 11.7692C4.95073 11.7684 4.81094 11.7685 4.67114 11.7688C4.60433 11.7688 4.53752 11.7686 4.47071 11.7681C4.37712 11.7675 4.2836 11.768 4.19002 11.7687C4.16267 11.7683 4.13533 11.768 4.10716 11.7676C3.8738 11.7714 3.69432 11.8526 3.55704 12.05Z" fill="#20B2AA"/>
</g>
<defs>
<clipPath id="clip0_3148_5846">
<rect width="15" height="15" fill="white"/>
</clipPath>
</defs>
</svg>
