<svg width="22" height="21" viewBox="0 0 22 21" fill="none" xmlns="http://www.w3.org/2000/svg">
<g id="Group 1">
<path id="Vector" d="M3.87239 20.5H16.4881C17.27 20.4978 18.0191 20.1855 18.571 19.6315C19.1229 19.0776 19.4325 18.3274 19.4318 17.5454V11.2064C19.4318 10.9834 19.3432 10.7695 19.1855 10.6117C19.0277 10.454 18.8138 10.3654 18.5908 10.3654C18.3677 10.3654 18.1538 10.454 17.996 10.6117C17.8383 10.7695 17.7497 10.9834 17.7497 11.2064V17.5454C17.7508 17.8814 17.6186 18.204 17.3821 18.4426C17.1456 18.6812 16.8241 18.8162 16.4881 18.8179H3.87239C3.53645 18.8162 3.21494 18.6812 2.97842 18.4426C2.7419 18.204 2.60969 17.8814 2.61081 17.5454V4.95156C2.60969 4.61562 2.7419 4.29295 2.97842 4.05438C3.21494 3.81581 3.53645 3.68083 3.87239 3.67905H10.1803C10.4033 3.67905 10.6172 3.59044 10.775 3.43271C10.9327 3.27498 11.0213 3.06106 11.0213 2.838C11.0213 2.61494 10.9327 2.40101 10.775 2.24329C10.6172 2.08556 10.4033 1.99695 10.1803 1.99695H3.87239C3.09046 1.99918 2.34137 2.31153 1.78949 2.86545C1.23761 3.41938 0.928041 4.16963 0.928712 4.95156V17.5454C0.928041 18.3274 1.23761 19.0776 1.78949 19.6315C2.34137 20.1855 3.09046 20.4978 3.87239 20.5Z" fill="#1E90FF"/>
<path id="Vector_2" d="M8.88062 9.18285L8.21703 12.2224C8.18699 12.3603 8.19213 12.5035 8.23196 12.6388C8.27179 12.7742 8.34504 12.8974 8.44495 12.997C8.54625 13.0941 8.66946 13.1654 8.80416 13.2048C8.93885 13.2442 9.08106 13.2505 9.21872 13.2233L12.2515 12.558C12.409 12.5234 12.5532 12.4443 12.667 12.3301L20.3323 4.66473C20.5667 4.43043 20.7526 4.15226 20.8794 3.84611C21.0062 3.53996 21.0715 3.21182 21.0715 2.88044C21.0715 2.54906 21.0062 2.22093 20.8794 1.91478C20.7526 1.60863 20.5667 1.33046 20.3323 1.09616C19.8519 0.637059 19.213 0.380859 18.5485 0.380859C17.884 0.380859 17.245 0.637059 16.7646 1.09616L9.11107 8.76905C8.9962 8.88206 8.91621 9.02569 8.88062 9.18285ZM17.9539 2.28624C18.1139 2.13295 18.3269 2.04738 18.5485 2.04738C18.7701 2.04738 18.9831 2.13295 19.1431 2.28624C19.2987 2.44489 19.3859 2.65823 19.3859 2.88044C19.3859 3.10265 19.2987 3.316 19.1431 3.47465L18.5485 4.06927L17.3592 2.88002L17.9539 2.28624ZM10.4685 9.78336L16.1658 4.07179L17.3433 5.25515L11.6435 10.9684L10.1338 11.2998L10.4685 9.78336Z" fill="#1E90FF"/>
</g>
</svg>
