<svg width="15" height="13" viewBox="0 0 15 13" fill="none" xmlns="http://www.w3.org/2000/svg">
<g id="Group">
<path id="Vector" d="M3.2518 0.248047C3.00571 0.297852 2.5809 0.511719 2.35825 0.69043C1.88364 1.07422 1.59653 1.64258 1.56137 2.2666C1.53794 2.67383 1.59946 2.9668 1.79282 3.36523C1.92172 3.63184 1.97446 3.70215 2.20883 3.93652C2.43149 4.15918 2.51938 4.22656 2.75376 4.34082C3.10825 4.51367 3.3602 4.5752 3.7352 4.5752C4.13364 4.5752 4.50278 4.48438 4.79282 4.31738C4.90708 4.25 4.91586 4.23535 4.98032 3.98926C5.10922 3.49121 5.43735 2.94336 5.79184 2.6416L5.9559 2.50098L5.93832 2.2373C5.89731 1.63672 5.60727 1.06836 5.14145 0.69043C4.91586 0.505859 4.49692 0.300781 4.23325 0.245117C3.97836 0.192383 3.50376 0.192383 3.2518 0.248047Z" fill="#6A5ACD"/>
<path id="Vector_2" d="M10.752 0.245117C10.5029 0.300781 10.0811 0.511718 9.8584 0.690429C9.41895 1.04785 9.12305 1.59863 9.06445 2.17871L9.04688 2.35742L9.17285 2.44238C9.73242 2.80859 10.2041 3.56738 10.2979 4.23535C10.3154 4.37598 10.3242 4.3877 10.4385 4.43164C10.7109 4.53418 10.9453 4.5752 11.25 4.5752C11.6396 4.5752 11.8857 4.5166 12.2461 4.34082C12.4805 4.22656 12.5684 4.15918 12.791 3.93652C13.0254 3.70215 13.0781 3.63184 13.207 3.36523C13.4004 2.9668 13.4619 2.67383 13.4385 2.2666C13.3857 1.33496 12.7705 0.558593 11.8623 0.274414C11.6426 0.204101 11.0068 0.186523 10.752 0.245117Z" fill="#6A5ACD"/>
<path id="Vector_3" d="M7.24512 2.48643C6.70605 2.58311 6.19922 2.89073 5.87402 3.32139C5.68945 3.56749 5.5957 3.7462 5.50195 4.03917C5.44629 4.22667 5.43457 4.32042 5.43457 4.66905C5.43457 5.12022 5.47559 5.29307 5.66016 5.65928C6.28711 6.90147 7.95117 7.24424 9.01172 6.34776C9.82324 5.66221 10.0371 4.56065 9.54199 3.61436C9.45117 3.43858 9.35156 3.3126 9.15527 3.11631C8.85938 2.82042 8.58105 2.65342 8.20312 2.54502C7.95117 2.47471 7.47949 2.44542 7.24512 2.48643Z" fill="#6A5ACD"/>
<path id="Vector_4" d="M2.25286 4.80078C1.1425 5.03516 0.287036 5.89941 0.0585203 7.01855C0.00285625 7.29687 -7.34397e-05 7.40234 0.00578594 8.59766L0.014575 9.87793L0.454028 10.0039C0.946216 10.1475 1.68157 10.3115 2.12395 10.3818C2.41692 10.4287 3.15227 10.5137 3.26946 10.5137C3.33098 10.5137 3.33391 10.502 3.34856 9.9043C3.36028 9.37402 3.372 9.25977 3.43938 9.00488C3.58586 8.44531 3.94329 7.83301 4.35637 7.43164C4.67864 7.11816 5.22942 6.78125 5.58977 6.67285C5.65715 6.65234 5.71282 6.62891 5.71282 6.61719C5.71282 6.6084 5.6718 6.56152 5.622 6.51172C5.27336 6.18066 4.96282 5.49805 4.90422 4.92969L4.88372 4.74219L3.69426 4.74512C2.66301 4.74512 2.47258 4.75391 2.25286 4.80078Z" fill="#6A5ACD"/>
<path id="Vector_5" d="M10.3299 4.80681C10.3211 4.84489 10.3064 4.94743 10.2977 5.03532C10.2479 5.47771 10.0193 6.00212 9.70879 6.38591C9.60332 6.51775 9.52129 6.62614 9.52715 6.632C9.53301 6.63493 9.61211 6.66716 9.70293 6.69939C10.4881 6.98943 11.1443 7.58122 11.5281 8.34587C11.783 8.85564 11.8592 9.20427 11.8855 9.97771C11.9031 10.5314 11.9031 10.5431 11.9647 10.5285C11.9998 10.5226 12.158 10.508 12.3191 10.4992C13.1805 10.4435 14.1678 10.2179 14.7742 9.93669L14.9998 9.83122V8.57146C14.9998 7.42009 14.9939 7.29118 14.9383 7.01872C14.7127 5.89079 13.8543 5.02946 12.7322 4.79802C12.5008 4.75114 12.3279 4.74236 11.4051 4.74236H10.3416L10.3299 4.80681Z" fill="#6A5ACD"/>
<path id="Vector_6" d="M6.37793 7.03043C5.66895 7.10367 4.97168 7.47867 4.51465 8.02945C4.30078 8.28433 4.03711 8.7941 3.94922 9.12222C3.8877 9.34488 3.88477 9.42398 3.87305 10.7511L3.86426 12.1457L4.22461 12.2511C4.99219 12.4767 5.63965 12.6144 6.35742 12.7111C6.94043 12.7902 8.22363 12.8224 8.74219 12.7726C9.71192 12.6759 10.5469 12.4796 11.127 12.2101L11.373 12.0959L11.3584 10.7716C11.3438 9.29507 11.335 9.22183 11.1416 8.75601C10.7314 7.78043 9.85254 7.13589 8.79199 7.0275C8.44336 6.99234 6.71484 6.99527 6.37793 7.03043Z" fill="#6A5ACD"/>
</g>
</svg>
