<svg width="13" height="15" viewBox="0 0 13 15" fill="none" xmlns="http://www.w3.org/2000/svg">
<g id="Group">
<path id="Vector" d="M3.10371 0.0363417C2.88705 0.133007 2.78705 0.319672 2.78705 0.609669V0.789667H2.42705C2.21039 0.789667 1.99039 0.809667 1.87039 0.839666C1.29707 0.989665 0.853738 1.43633 0.70374 2.01299C0.627074 2.29965 0.627074 13.4129 0.70374 13.6995C0.853738 14.2762 1.29707 14.7229 1.87039 14.8729C2.04373 14.9162 2.63039 14.9229 6.52034 14.9229C10.4103 14.9229 10.997 14.9162 11.1703 14.8729C11.7436 14.7229 12.187 14.2762 12.3369 13.6995C12.4136 13.4129 12.4136 2.29965 12.3369 2.01299C12.187 1.43633 11.7436 0.989665 11.1703 0.839666C11.0536 0.809667 10.8303 0.789667 10.617 0.789667H10.2603L10.247 0.556336C10.227 0.189673 10.0536 0.00634193 9.72031 0.00634193C9.38698 0.00634193 9.21365 0.189673 9.19365 0.556336L9.18032 0.789667H8.12033H7.06034L7.04701 0.556336C7.02701 0.189673 6.85367 0.00634193 6.52034 0.00634193C6.18701 0.00634193 6.01368 0.189673 5.99368 0.556336L5.98035 0.789667H4.92036H3.86037L3.84704 0.556336C3.83371 0.309672 3.78371 0.20634 3.61371 0.0796747C3.50038 -0.00365829 3.23705 -0.0269909 3.10371 0.0363417ZM10.007 4.87629C10.1836 5.00629 10.237 5.11296 10.237 5.32295C10.237 5.53295 10.1836 5.63962 10.007 5.76961C9.91698 5.83961 9.89031 5.83961 6.59368 5.84961C4.3237 5.85628 3.23038 5.84961 3.14705 5.82295C2.81038 5.72628 2.68039 5.26295 2.91038 4.98629C3.08371 4.78296 2.89705 4.78963 6.56034 4.79962C9.89031 4.80629 9.91698 4.80629 10.007 4.87629ZM10.007 7.54293C10.1836 7.67293 10.237 7.77959 10.237 7.98959C10.237 8.19959 10.1836 8.30625 10.007 8.43625C9.91698 8.50625 9.89031 8.50625 6.59368 8.51625C4.3237 8.52292 3.23038 8.51625 3.14705 8.48959C2.81038 8.39292 2.68039 7.92959 2.91038 7.65293C3.08371 7.4496 2.89705 7.45626 6.56034 7.46626C9.89031 7.47293 9.91698 7.47293 10.007 7.54293ZM6.80701 10.2096C6.98367 10.3396 7.03701 10.4462 7.03701 10.6562C7.03701 10.8662 6.98367 10.9729 6.80701 11.1029C6.71701 11.1696 6.67368 11.1729 4.99369 11.1829C3.84371 11.1896 3.23038 11.1829 3.14705 11.1562C2.81038 11.0596 2.68039 10.5962 2.91038 10.3196C3.08038 10.1196 3.04038 10.1229 4.96036 10.1329C6.67368 10.1396 6.71701 10.1396 6.80701 10.2096Z" fill="#1E90FF"/>
</g>
</svg>
