<svg width="16" height="17" viewBox="0 0 16 17" fill="none" xmlns="http://www.w3.org/2000/svg">
<g id="Group">
<path id="Vector" d="M4.98437 0.740495C4.07812 0.809245 3.19375 0.940495 2.79687 1.06549C2.14687 1.26549 1.43125 1.778 1.00312 2.34674C0.38125 3.16862 0.246875 3.66237 0.071875 5.74987C-0.003125 6.64362 -0.003125 8.72487 0.071875 9.64049C0.2 11.203 0.253125 11.5436 0.475 12.1842C0.859375 13.303 1.53437 14.2436 2.32812 14.7655C3.31562 15.4155 4.60625 15.9624 5.64375 16.1717C6.63125 16.3717 7.03125 16.2874 7.54687 15.7686C7.82812 15.4842 8.0125 15.1717 8.15312 14.7374L8.23437 14.4842L8.39062 14.4592C9.29375 14.3061 9.94062 13.9905 10.5094 13.428C10.8656 13.0717 11.0656 12.7936 11.2812 12.3592C11.55 11.8186 11.6187 11.5124 11.7375 10.3624C11.7937 9.80924 11.7812 9.70299 11.6344 9.52799C11.5312 9.40924 11.3375 9.31549 11.1875 9.31237C11.0375 9.31237 10.8219 9.42799 10.7094 9.56862C10.6219 9.67799 10.6156 9.71237 10.5437 10.3499C10.4219 11.4436 10.3469 11.7124 10.0312 12.1686C9.75625 12.5655 9.38437 12.8842 8.95937 13.078C8.75 13.1749 8.4125 13.2686 8.38437 13.2374C8.37812 13.2311 8.39062 12.9874 8.4125 12.6999C8.46562 11.9999 8.46562 9.27487 8.4125 8.49987C8.2875 6.68424 8.20312 6.20924 7.85937 5.39049C7.4375 4.38112 6.87812 3.66862 6.09375 3.14987C5.6375 2.84674 4.66562 2.34987 4.19687 2.18112C4.0375 2.12487 3.90625 2.06862 3.90625 2.05924C3.90625 2.04987 4.04375 2.02487 4.2125 2.00299C5.4125 1.86237 6.71875 1.87174 7.85937 2.03424C8.87812 2.17799 9.27812 2.35612 9.775 2.89049C10.2906 3.44049 10.4344 3.85924 10.5625 5.18737C10.6031 5.61862 10.6562 5.77799 10.8 5.90299C11.0969 6.16549 11.5625 6.06237 11.725 5.69362C11.7906 5.54987 11.7906 5.54362 11.7375 5.00299C11.6 3.59674 11.425 3.05924 10.8781 2.35299C10.4094 1.74675 9.775 1.28737 9.11562 1.07799C8.69375 0.94362 7.85312 0.812369 7.01562 0.749869C6.62187 0.721745 5.3 0.715495 4.98437 0.740495Z" fill="#203755"/>
<path id="Vector_2" d="M13.0469 5.01244C12.8562 5.09681 12.6875 5.35619 12.6875 5.56244C12.6875 5.76244 12.7781 5.88431 13.3844 6.49056L13.9844 7.09369H11.875C9.89687 7.09369 9.75937 7.09994 9.64062 7.15306C9.4375 7.24369 9.28125 7.47806 9.28125 7.68744C9.28125 7.89681 9.4375 8.13119 9.64062 8.22181C9.75937 8.27494 9.89687 8.28119 11.875 8.28119H13.9844L13.3844 8.88119C13.0031 9.26556 12.7656 9.52806 12.7344 9.59994C12.6719 9.75306 12.675 9.89369 12.7469 10.0468C12.8844 10.3437 13.2031 10.4781 13.4937 10.3593C13.6375 10.2999 15.85 8.10306 15.9406 7.93119C16.0125 7.79056 16.0156 7.59994 15.9531 7.44369C15.8844 7.28744 13.7219 5.11556 13.5437 5.03119C13.4 4.95931 13.1844 4.95306 13.0469 5.01244Z" fill="#203755"/>
</g>
</svg>
