<svg width="21" height="21" viewBox="0 0 21 21" fill="none" xmlns="http://www.w3.org/2000/svg">
<g id="CTA Secondary / Post ">
<path id="Vector" d="M18.3973 0.0454725C18.1782 0.0991396 2.01588 7.39784 1.1617 7.83165C1.02754 7.89873 0.799461 8.0642 0.660825 8.19837C-0.22913 9.0481 -0.220186 10.4434 0.687657 11.2932C0.991763 11.5749 0.678713 11.4229 5.00327 13.3683L6.81448 14.1822L7.62841 15.9935C9.56484 20.3092 9.42174 20.0051 9.70348 20.3092C10.2312 20.8682 10.9825 21.1097 11.7204 20.9532C12.275 20.8325 12.8698 20.3852 13.1336 19.8933C13.2096 19.7502 14.9851 15.8638 17.078 11.2529C19.8731 5.09464 20.9062 2.78248 20.9554 2.5544C21.1387 1.70915 20.7452 0.79681 19.9939 0.322753C19.5422 0.0410017 18.8982 -0.0708052 18.3973 0.0454725ZM19.2425 1.54367C19.4438 1.6689 19.6003 1.9909 19.569 2.20109C19.5556 2.28607 17.8204 6.15456 15.714 10.7967C12.5701 17.7287 11.859 19.2627 11.7338 19.379C11.4566 19.6428 11.0317 19.6294 10.7768 19.3566C10.6695 19.2359 10.2983 18.4577 9.41726 16.4944L8.20979 13.7931L11.0764 10.9264C13.554 8.43987 13.9475 8.0329 13.9878 7.87637C14.1219 7.34864 13.6524 6.87011 13.1336 7.00428C12.9637 7.049 12.6238 7.37101 10.0747 9.92018L7.20356 12.7824L4.50686 11.5749C2.53465 10.6939 1.76097 10.3272 1.64022 10.2198C1.46134 10.0499 1.39425 9.83968 1.44345 9.57135C1.51053 9.23146 1.57314 9.19568 4.44425 7.89426C5.92005 7.22789 9.63193 5.54186 12.6953 4.15099C15.7587 2.76012 18.3749 1.57498 18.5091 1.51684C18.7953 1.39609 19.01 1.40056 19.2425 1.54367Z" fill="#1E90FF"/>
</g>
</svg>
