<svg width="22" height="22" viewBox="0 0 22 22" fill="none" xmlns="http://www.w3.org/2000/svg">
<g id="Group">
<path id="Vector" d="M6.38091 0.0731442C5.13482 0.339549 4.15083 1.33643 3.89302 2.58682C3.83716 2.84463 3.82427 3.20127 3.82427 4.23252V5.54307H3.3731C2.38052 5.54307 1.62856 5.83525 0.971143 6.47979C0.498486 6.94385 0.202002 7.48525 0.0687988 8.12978C-0.0343262 8.62822 -0.0343262 14.0638 0.0687988 14.5579C0.197705 15.1767 0.468408 15.6837 0.915283 16.1521C1.56841 16.8224 2.35903 17.1446 3.3731 17.1446H3.82427V18.6915C3.82427 19.6798 3.84146 20.3157 3.87153 20.4618C4.03052 21.2009 4.62349 21.7938 5.36255 21.9528C5.68052 22.0216 16.311 22.0216 16.6376 21.9528C17.368 21.7981 17.9739 21.188 18.1286 20.4618C18.1586 20.32 18.1758 19.654 18.1758 18.6915V17.1446H18.627C19.1126 17.1446 19.5981 17.063 19.9547 16.9255C20.6938 16.6333 21.3856 15.9673 21.7251 15.2153C21.9829 14.6438 21.9743 14.7642 21.9872 11.4942C22.0001 8.85596 21.9958 8.44775 21.9356 8.14697C21.7594 7.29189 21.2567 6.54853 20.5262 6.07158C19.959 5.70205 19.3918 5.54307 18.627 5.54307H18.1758V4.23252C18.1758 3.19697 18.1629 2.84892 18.1071 2.58682C17.845 1.31924 16.8567 0.330957 15.5891 0.0688469C15.1079 -0.0299804 6.84927 -0.0299804 6.38091 0.0731442ZM15.3485 1.33643C16.0833 1.49111 16.6805 2.08838 16.8395 2.82744C16.8696 2.96924 16.8868 3.53213 16.8868 4.29697V5.54307H11H5.11333V4.29697C5.11333 3.54932 5.13052 2.96494 5.1606 2.82744C5.23794 2.45361 5.40982 2.14853 5.68911 1.86924C5.96411 1.59424 6.23482 1.43955 6.59575 1.34932C6.88794 1.27627 15.0047 1.26338 15.3485 1.33643ZM19.1727 6.87939C19.9075 7.03408 20.5047 7.63135 20.6637 8.37041C20.7282 8.68408 20.7282 13.9993 20.6637 14.3173C20.595 14.6481 20.3458 15.0907 20.1094 15.3142C19.7055 15.6923 19.2372 15.8556 18.5626 15.8556H18.1758V14.7813V13.7071H18.4336C18.8891 13.7071 19.2071 13.445 19.2071 13.0626C19.2071 12.8478 19.0567 12.6028 18.8633 12.504C18.6958 12.4181 18.627 12.4181 11 12.4181C3.3731 12.4181 3.30435 12.4181 3.13677 12.504C2.94341 12.6028 2.79302 12.8478 2.79302 13.0626C2.79302 13.445 3.11099 13.7071 3.56646 13.7071H3.82427V14.7813V15.8556H3.43755C2.72427 15.8556 2.28599 15.6966 1.86919 15.2755C1.58989 14.9962 1.41802 14.6868 1.33638 14.3173C1.27192 14.0036 1.27192 8.68838 1.33638 8.37041C1.41372 7.99658 1.5856 7.6915 1.86489 7.41221C2.13989 7.13721 2.4106 6.98252 2.77153 6.89228C3.06372 6.81924 18.8247 6.80635 19.1727 6.87939ZM16.8868 16.9513C16.8868 20.1224 16.8868 20.204 16.8008 20.3673C16.745 20.479 16.6547 20.5692 16.543 20.6251C16.3754 20.711 16.3024 20.711 10.9958 20.711H5.62036L5.44849 20.6165C5.34536 20.5563 5.24224 20.4532 5.19497 20.3587C5.11763 20.204 5.11333 20.0536 5.11333 16.9513V13.7071H11H16.8868V16.9513Z" fill="#1E90FF"/>
<path id="Vector_2" d="M3.12812 8.3832C2.94336 8.47773 2.79297 8.73125 2.79297 8.9375C2.79297 9.15234 2.94336 9.39727 3.13672 9.49609C3.29141 9.57773 3.38594 9.58203 4.46875 9.58203C5.55156 9.58203 5.64609 9.57773 5.80078 9.49609C5.99414 9.39727 6.14453 9.15234 6.14453 8.9375C6.14453 8.72266 5.99414 8.47773 5.80078 8.37891C5.6418 8.29727 5.55156 8.29297 4.46016 8.29297C3.37734 8.29727 3.27422 8.30156 3.12812 8.3832Z" fill="#1E90FF"/>
<path id="Vector_3" d="M8.97187 15.2582C8.78711 15.3527 8.63672 15.6063 8.63672 15.8125C8.63672 16.0273 8.78711 16.2723 8.98047 16.3711C9.13945 16.4527 9.22969 16.457 11 16.457C12.7703 16.457 12.8605 16.4527 13.0195 16.3711C13.2129 16.2723 13.3633 16.0273 13.3633 15.8125C13.3633 15.5977 13.2129 15.3527 13.0195 15.2539C12.8562 15.1723 12.7703 15.168 10.9914 15.168C9.22539 15.1723 9.12227 15.1766 8.97187 15.2582Z" fill="#1E90FF"/>
<path id="Vector_4" d="M8.97187 18.0082C8.78711 18.1027 8.63672 18.3562 8.63672 18.5625C8.63672 18.7773 8.78711 19.0223 8.98047 19.1211C9.13945 19.2027 9.22969 19.207 11 19.207C12.7703 19.207 12.8605 19.2027 13.0195 19.1211C13.2129 19.0223 13.3633 18.7773 13.3633 18.5625C13.3633 18.3477 13.2129 18.1027 13.0195 18.0039C12.8562 17.9223 12.7703 17.918 10.9914 17.918C9.22539 17.9223 9.12227 17.9266 8.97187 18.0082Z" fill="#1E90FF"/>
</g>
</svg>
