<?xml version="1.0" encoding="UTF-8" standalone="no"?>
<svg
   xmlns:dc="http://purl.org/dc/elements/1.1/"
   xmlns:cc="http://creativecommons.org/ns#"
   xmlns:rdf="http://www.w3.org/1999/02/22-rdf-syntax-ns#"
   xmlns:svg="http://www.w3.org/2000/svg"
   xmlns="http://www.w3.org/2000/svg"
   viewBox="0 0 125.33333 125.33333"
   height="125.33333"
   width="125.33333"
   xml:space="preserve"
   id="svg2"
   version="1.1"><metadata
     id="metadata8"><rdf:RDF><cc:Work
         rdf:about=""><dc:format>image/svg+xml</dc:format><dc:type
           rdf:resource="http://purl.org/dc/dcmitype/StillImage" /></cc:Work></rdf:RDF></metadata><defs
     id="defs6" /><g
     transform="matrix(1.3333333,0,0,-1.3333333,0,125.33333)"
     id="g10"><g
       transform="translate(16.550293,9.049316)"
       id="g12"><path
         id="path14"
         style="fill:#b2ffd1;fill-opacity:1;fill-rule:evenodd;stroke:none"
         d="M 12.464847,84.10939 C 24.519699,89.019852 49.131691,71.51828 61.186649,55.401726 69.72551,45.832504 68.601486,10.416916 56.665924,7.570847 41.980389,4.069046 11.077206,6.235764 4.428193,17.643753 -1.599028,25.702042 -3.608289,77.561996 12.464847,84.10939 Z" /></g><g
       transform="matrix(0.65505,-0.755585,0.753832,0.657067,-6.509506,54.919552)"
       id="g16"><path
         id="path18"
         style="fill:#acb4ff;fill-opacity:1;fill-rule:evenodd;stroke:none"
         d="M 14.282404,8.67244 C 21.971773,7.848873 28.604221,20.779652 26.805925,29.193638 24.507103,35.42971 22.443058,48.100315 15.924142,51.178162 8.160154,53.170574 -0.00385,41.119068 1e-6,28.57497 0.003853,16.030876 5.62079,9.77631 14.282404,8.67244 Z" /></g><g
       transform="translate(73.216309,28.76416)"
       id="g20"><path
         id="path22"
         style="fill:#69a1ac;fill-opacity:1;fill-rule:evenodd;stroke:none"
         d="m 8.20479,0 c 5.980773,0 12.57872,5.742006 12.57872,13.058838 0,7.316831 -6.597947,13.058838 -12.57872,13.058838 C 2.224016,26.117676 0,17.744217 0,11.743114 0,5.742008 2.224016,0 8.20479,0 Z" /></g><g
       transform="translate(35.75293,57.154297)"
       id="g24"><path
         id="path26"
         style="fill:#fac595;fill-opacity:1;fill-rule:evenodd;stroke:none"
         d="M 4.6427,8.275542 C 6.150794,7.356091 7.63256,6.911846 8.328129,7.093201 c 1.744159,0.454751 1.904519,6.908775 0.55498,9.453153 C 7.53357,19.090731 0.595803,20.199736 0.24611,15.158512 0.124742,13.408863 0.851056,11.847414 1.92418,10.573296 L 0,1.501677 h 5.5893 z" /></g><g
       transform="translate(34.821289,66.229248)"
       id="g28"><path
         id="path30"
         style="fill:#191847;fill-opacity:1;fill-rule:evenodd;stroke:none"
         d="m 2.426255,0.363493 c -0.701512,3.156835 -2.700007,5.308743 -2.394789,6.719714 0.305218,1.41097 1.626995,1.754866 1.626995,1.754866 0,0 0.683611,2.797334 4.409569,2.379631 C 9.793988,10.8 12.068105,9.234855 11.086026,5.790851 c -0.902761,0 -1.992587,0.330238 -3.49959,-0.235566 C 6.869187,5.285994 6.560441,3.885094 6.560441,3.885094 H 5.879433 c 0,0 -0.991422,1.662485 -1.955096,1.221836 C 2.960663,4.666281 3.486219,2.966253 3.486219,2.966253 L 3.150753,0.363493 Z" /></g><g
       transform="translate(19.217773)"
       id="g32"><path
         id="path34"
         style="fill:#c5cfd6;fill-opacity:1;fill-rule:evenodd;stroke:none"
         d="M 6.432969,29.210205 H 24.424591 L 26.782066,1.3e-5 H 0 Z" /></g><g
       id="g36"><g
         transform="translate(19.217773)"
         id="g38"><path
           id="path40"
           style="fill:#000000;fill-opacity:0.1;fill-rule:evenodd;stroke:none"
           d="m 6.43297,29.210205 h 5.533445 L 15.278303,1.3e-5 H 0 Z" /></g></g><g
       transform="translate(48.34668,-0.498535)"
       id="g42"><path
         id="path44"
         style="fill:#fac595;fill-opacity:1;fill-rule:evenodd;stroke:none"
         d="M 5.18101,23.921707 C 3.15921,19.58456 0,9.056145 0,9.056145 L 2.682063,7.81669 c 0,0 6.805234,11.067214 10.964176,18.63266 -0.193793,-1.703142 -0.39111,-3.620588 -0.574033,-5.636217 -0.433346,-4.775036 -2.35e-4,-15.091337 0.232887,-18.071384 0.146509,-1.872868 2.66242,-1.480522 2.897277,0.00487 0.03978,0.251614 0.201898,1.134831 0.44379,2.452687 1.186108,6.462047 4.290392,23.374515 4.295885,27.515625 0.0022,1.666324 -3.216154,3.163246 -5.134401,1.998142 -1.317639,1.422096 -3.811359,2.241741 -5.243987,-0.107391 C 9.652895,33.112267 7.488884,28.87254 5.18101,23.921707 Z" /></g><g
       transform="matrix(0.938424,-0.345487,0.338579,0.940938,47.431492,9.379402)"
       id="g46"><path
         id="path48"
         style="fill:#1f28cf;fill-opacity:1;fill-rule:evenodd;stroke:none"
         d="M 3.5e-5,3.269255 1.19346,27.14996 c 0.860153,4.12931 8.140336,2.212896 8.137342,0 C 9.324005,22.126001 6.33245,4.770964 6.330425,3.274158 Z" /></g><g
       transform="matrix(0.863532,-0.504294,0.495718,0.868484,42.918613,1.789453)"
       id="g50"><path
         id="path52"
         style="fill:#e4e4e4;fill-opacity:1;fill-rule:evenodd;stroke:none"
         d="M 2.460948,9.462046 C 1.386203,9.462046 0.117086,9.259695 0.007981,8.190502 0.002789,8.139623 0,8.09178 0,8.047708 0,7.412322 0.210494,6.193336 0.210494,6.193336 c 0.73289,0 13.173212,0 13.173212,0 0,0 0.513488,1.707304 -0.592829,1.843437 -1.106317,0.136133 -1.838073,0.245834 -1.838073,0.245834 L 5.553179,10.703589 C 5.037615,10.934748 4.433064,10.693177 4.218772,10.170378 L 4.125422,9.942635 c 0,0 -1.024161,-0.480589 -1.664474,-0.480589 z" /></g><g
       transform="translate(60.671875,0.193359)"
       id="g54"><path
         id="path56"
         style="fill:#e4e4e4;fill-opacity:1;fill-rule:evenodd;stroke:none"
         d="m 2.453861,3.084519 c -1.070836,0 -2.33189,-0.201318 -2.44497,-1.266167 C 0.003116,1.763969 0,1.712949 0,1.666166 0,1.028977 0.209888,-0.19347 0.209888,-0.19347 c 0.73078,0 13.135278,0 13.135278,0 0,0 0.51201,1.712151 -0.591121,1.84867 -1.103133,0.136519 -1.832781,0.246532 -1.832781,0.246532 L 5.542908,4.327007 C 5.026354,4.559938 4.419651,4.317556 4.205791,3.79282 L 4.113542,3.566472 c 0,0 -1.021211,-0.481953 -1.659681,-0.481953 z" /></g><g
       transform="translate(30.163574,8.282227)"
       id="g58"><path
         id="path60"
         style="fill:#2b44ff;fill-opacity:1;fill-rule:evenodd;stroke:none"
         d="m 39.770294,22.239391 c 0,-6.258276 -2.938289,-20.856373 -2.940147,-22.234392 L 30.508268,9e-5 c 0,0 1.387991,19.538606 0.984343,19.749094 C 31.088963,19.959673 14.945753,18.11887 10.104142,18.11887 3.122515,18.11887 0.234356,22.572161 0,30.821777 h 13.830343 c 2.815983,-0.30479 17.504402,-3.301519 22.959391,-4.331686 2.335373,-0.441032 2.98056,-2.526704 2.98056,-4.2507 z" /></g><g
       transform="translate(51.369141,36.796387)"
       id="g62"><path
         id="path64"
         style="fill:#fac595;fill-opacity:1;fill-rule:evenodd;stroke:none"
         d="m 11.249538,29.171043 -8.827316,-2.68037 2.253729,-3.797733 6.863414,4.085678 c 3.203874,0.192982 4.717664,0.5126 4.541369,0.95886 -0.148647,0.376272 -0.502441,0.440382 -0.828323,0.499436 -0.253862,0.046 -0.490787,0.08893 -0.600597,0.273975 -0.250776,0.422579 0.628275,1.522596 1.506595,2.530403 0.878319,1.007807 0.175453,1.054751 -0.2491,0.973921 -1.45977,-0.599453 -3.013027,-1.54751 -4.659771,-2.84417 z M 9.0709,5.230627 1.642191,10.748432 0,6.642288 7.356371,3.556702 c 2.08051,-2.472018 3.243889,-3.502537 3.490138,-3.091557 0.207629,0.346527 0.04533,0.670912 -0.104167,0.969706 -0.116457,0.232759 -0.225143,0.449989 -0.145129,0.650057 0.182728,0.456895 1.580278,0.408786 2.904583,0.305776 1.324304,-0.10301 0.938373,0.493031 0.619052,0.787348 -1.351814,0.818472 -3.03513,1.50267 -5.049948,2.052595 z" /></g><g
       transform="matrix(0.965178,-0.261593,0.25607,0.966658,32.136013,39.437256)"
       id="g66"><path
         id="path68"
         style="fill:#2026a2;fill-opacity:1;fill-rule:evenodd;stroke:none"
         d="M 3.144264,24.610352 C 9.008686,18.304312 16.16131,14.189342 25.916359,10.539392 L 23.750061,6.164511 C 13.685094,7.122938 8.304181,7.888397 4.085843,14.204164 3.027125,15.789293 1.134076,21.243425 0,24.075766 Z" /></g><g
       transform="translate(30.163574,36.983887)"
       id="g70"><path
         id="path72"
         style="fill:#f2f2f2;fill-opacity:1;fill-rule:evenodd;stroke:none"
         d="m 0,-3.6e-5 h 17.932341 c 0,0 -6.092964,18.796268 -6.225035,25.80118 -0.0045,0.238079 -0.439187,0.657606 -0.631508,0.602665 C 8.96617,25.801144 6.560861,26.854492 6.560861,26.854492 2.309659,19.938648 0.839519,11.423845 0,-3.6e-5 Z" /></g><g
       transform="translate(27.818359,31.1875)"
       id="g74"><path
         id="path76"
         style="fill:#1f28cf;fill-opacity:1;fill-rule:evenodd;stroke:none"
         d="M 13.404209,22.09972 C 16.20496,9.947731 16.075832,4.2e-5 9.89255,4.2e-5 H 0.331038 c -1.518589,10.322979 2.472559,24.636051 6.172644,31.85545 0.141296,0.275688 0.442126,0.79541 1.150708,0.79541 h 2.778293 c 0.0012,-0.0037 0.0024,-0.0074 0.0037,-0.01117 0.836061,-0.0069 1.756764,-0.03784 2.753842,-0.07132 5.133104,-0.172364 12.290403,-0.412701 20.343986,2.202583 l 0.949558,-4.799299 C 27.214581,25.242767 19.853952,21.579517 13.404209,22.09972 Z" /></g></g></svg>