<svg xmlns="http://www.w3.org/2000/svg" xmlns:xlink="http://www.w3.org/1999/xlink" version="1.1" width="94" height="94.53784" viewBox="0 0 94 94.53784">
<defs>
<clipPath id="clip_0">
<path transform="matrix(1,0,0,-1,0,94.53784)" d="M0 0H94V94.53784H0Z"/>
</clipPath>
</defs>
<g>
<path transform="matrix(1,0,0,-1,0,106.41919)" d="M87 22.41933C98.716777 32.440969 89.34839 57.37548 68.5 59.919408 39.64395 63.440439 15.038098 80.97841 1.480088 63.440656-6.802287 51.265207 21.566235 23.354729 39.64395 14.836506 50.1892 9.86758 72.94009 10.393555 87 22.41933Z" fill="#ffebb0" fill-rule="evenodd"/>
<g opacity=".7">
<g clip-path="url(#clip_0)">
<path transform="matrix(-.994522,.104528,-.104528,-.994522,75.135318,68.23176)" d="M7.0143 26.01066C5.583054 25.934897 3.909941 24.918972 3.920699 23.355696 3.928546 22.219841 4.080534 21.102404 4.027797 19.96188 3.985571 19.050358 3.787367 18.158764 3.479476 17.300139 3.183421 16.47448 2.468264 15.722965 2.352212 14.861955 2.278233 14.313334 2.430207 13.568491 2.664765 13.064111 2.950004 12.450867 2.828656 12.488951 2.449648 11.909399 1.706975 10.773655 1.051981 9.62019 .640385 8.313698 .047494 6.431877-.244126 4.274414 .253169 2.335003 .316394 2.088718 .454521 1.195614 .805583 1.169071 1.197678 1.139355 .963823 1.633863 .925852 1.797552 .683734 2.842007 .470204 3.75477 .51514 4.846109 .688579 9.056858 3.376218 12.101618 4.943311 15.824611 5.030718 16.017296 5.210089 16.473095 5.336421 16.774641 5.535869 17.250714 5.693917 18.13332 5.992884 18.502203 6.555923 19.197133 6.110396 17.872216 6.013171 17.618004 5.89026 17.296452 5.753847 16.954094 5.62313 16.669915 5.026711 15.353642 4.357786 13.914936 3.741553 12.55794 7.065426 12.159506 8.941391 16.30233 9.542844 18.959574 10.038401 21.148852 10.377694 26.181298 7.0143 26.01066" fill="#69a1ac" fill-rule="evenodd"/>
<path transform="matrix(1,0,0,-1,73.95264,70.61133)" d="M10.673286 31.461415C8.280548 31.27157 6.744463 29.692704 6.02941 27.484375 5.644022 26.29429 5.599849 25.071728 5.385686 23.848723 5.063516 22.008698 4.370328 20.614295 3.015607 19.303383 2.59601 18.897393 2.2868 18.480545 2.066994 18.034573 1.630644 17.589306 1.250811 17.085434 .971755 16.469388 .615287 15.682647 .514421 14.738716 .925995 13.954357 1.036648 13.743507 1.312706 13.320217 1.598815 13.127901 .527646 10.846582-.061324 8.348057 .005067 5.852711 .045184 4.346394 .118717 2.839458 .204506 1.334995 .227606 .931034 .359155 .263975 .556742 .941452 .737578 1.561117 .510806 2.533905 .489822 3.181286 .387722 6.334957 .300434 9.202404 1.598639 12.148844 1.734772 12.457661 1.879105 12.764009 2.029434 13.067884 2.038251 13.073004 2.046451 13.079182 2.054739 13.085182 2.06047 13.08077 2.065671 13.076004 2.071403 13.07168 2.081013 13.088802 2.09415 13.10919 2.109492 13.13196 2.152606 13.176443 2.190255 13.232664 2.226052 13.295416 2.341201 13.454988 2.471515 13.64245 2.47222 13.745096 2.47222 13.745892 2.471779 13.747126 2.471779 13.747919 3.275442 15.059801 4.19593 16.2994 5.136167 17.514727 5.129114 17.505902 6.156021 18.904099 5.997228 18.130864 5.920697 17.758233 5.165351 17.04863 4.860285 16.653935 4.185438 15.775846 3.392972 14.663254 2.734436 13.587378 2.645825 13.536451 2.520625 13.286413 2.430075 13.100187 2.380083 13.005838 2.333442 12.910694 2.287594 12.82782 4.620994 12.056877 6.436135 13.609795 7.673855 15.416016 7.675354 15.418135 7.676677 15.42034 7.678087 15.422459 8.054747 15.921563 8.440576 16.417138 8.922598 16.811655 9.726789 17.469979 10.588027 17.586129 11.5362 17.910126 14.12194 18.793599 15.221323 22.144707 15.570474 24.631226 15.964414 27.436451 14.037474 31.738018 10.673286 31.461415" fill="#89c5cc" fill-rule="evenodd"/>
<path transform="matrix(.990268,-.139173,-.139173,-.990268,74.34594,65.67653)" d="M10.283481 33.275175C7.495908 31.08594 5.827653 27.740508 4.43353 24.570984 2.87646 21.030943 1.664132 17.384459 1.099177 13.555777 .728049 11.040312 .303471 8.516327 .096981 5.980703 .023587 5.080187-.013121 4.172918 .004267 3.269434 .005723 3.195189 .045191 1.177776 .412865 1.594912 .621969 1.832127 .375828 3.687136 .380047 3.989742 .404142 5.694105 .592147 7.388033 .839512 9.073366 1.246766 11.848211 1.553196 14.62273 2.223562 17.350186 2.323586 17.75742 2.41778 18.186669 2.572711 18.577034 2.737279 18.992066 2.578224 18.823153 2.941517 18.945553 3.294525 19.064579 3.698709 18.983693 4.070021 19.143055 5.542875 19.775288 6.53424 21.791642 7.269518 23.102726 8.110485 24.602002 8.723811 26.240593 9.258422 27.867609 9.651058 29.063042 9.979879 30.259839 10.243591 31.489493 10.326691 31.877039 10.385899 32.286199 10.516939 32.660329 10.55225 32.761255 10.682071 32.930326 10.691224 33.02281 10.710584 33.21855 10.609197 33.349519 10.622562 33.514406 10.507889 33.437097 10.394753 33.3573 10.283481 33.275175" fill="#89c5cc" fill-rule="evenodd"/>
<path transform="matrix(1,0,0,-1,66.50879,73)" d="M0 7.65332C0 3.426505 3.426511-.000006 7.653327-.000006 11.880142-.000006 15.306653 3.426505 15.306653 7.65332" fill="#89c5cc" fill-rule="evenodd"/>
<path transform="matrix(1,0,0,-1,74.36963,68.323978)" d="M5.035231 9.678121C6.929382 9.817765 9.044692 8.28965 9.958364 6.699421 10.694915 5.417279 10.570832 3.733658 10.115893 2.371504 9.811248 1.459561 9.146358 .159344 8.037561 .146673 6.650329 .130813 6.583434 1.845356 6.556605 2.847678 6.520951 4.180238 6.352567 5.341077 5.302546 6.249387 5.172902 6.36148 5.036869 6.466436 4.900848 6.571383 4.780108 6.664539 4.659379 6.757688 4.543138 6.855813 4.524559 6.87149 4.505885 6.887185 4.487164 6.90292 4.11587 7.214994 3.725915 7.542756 3.678446 8.057145 3.60961 8.802595 4.030395 8.936747 4.672868 8.798254 4.693594 8.793794 4.749904 8.772449 4.826483 8.743423 5.154576 8.619062 5.854714 8.353683 5.722272 8.670925 5.67241 8.790457 5.490258 8.885178 5.260361 8.956151 4.665455 9.020834 3.955998 9.095884 3.75196 9.051049 1.550781 8.568142 .693766 5.519089 .466165 3.581875 .441589 3.372673 .421718 3.162787 .404391 2.95258H0C.028062 3.460058 .065121 3.966649 .149958 4.468476 .474372 6.387348 1.488739 9.205668 3.713482 9.517122 3.795556 9.528729 4.097466 9.530679 4.463182 9.509235 4.636508 9.606083 4.830663 9.664653 5.035231 9.678121Z" fill="#69a1ac" fill-rule="evenodd"/>
</g>
</g>
<path transform="matrix(1,0,0,-1,26.847168,27.912598)" d="M4.490807 7.893404C5.94956 7.01642 7.382848 6.592694 8.055659 6.765672 9.742756 7.199419 9.89787 13.355349 8.592484 15.782207 7.287097 18.209067 .576311 19.26685 .238058 14.458466 .120662 12.789629 .823212 11.3003 1.861228 10.08503L0 1.432407H5.406437L4.490807 7.893404Z" fill="#b28b67" fill-rule="evenodd"/>
<path transform="matrix(1,0,0,-1,23.467774,19.028077)" d="M9.836354 9.541014C9.097601 9.765699 8.025189 9.841898 7.574059 9.79035 7.830682 10.403612 7.932515 11.08686 7.849497 11.752122 7.768807 12.398547 7.479211 12.94896 7.211377 13.525726 7.08792 13.791577 6.94801 14.05598 6.739414 14.259326 6.52692 14.466494 6.257931 14.603241 5.97587 14.668481 5.687222 14.735261 5.385398 14.7297 5.096302 14.669097 4.968412 14.642291 4.853663 14.583969 4.72824 14.551548 4.599799 14.518331 4.537492 14.598514 4.444265 14.679094 4.219596 14.873258 3.890232 14.969108 3.605999 15.003412 3.287102 15.041883 2.956204 14.993903 2.652069 14.889341 2.35604 14.787551 2.071651 14.622258 1.857623 14.381456 1.762326 14.274268 1.675825 14.152265 1.619606 14.017564 1.59655 13.962285 1.592738 13.929539 1.537433 13.909288 1.486284 13.890543 1.426461 13.889999 1.373674 13.872158 .863254 13.69973 .42685 13.306369 .18923 12.80131 .050597 12.50666-.015073 11.987885 .002914 11.406425 .0209 10.824965 .547289 9.307768 1.039619 8.754366 1.479076 8.260409 2.125025 7.934443 2.748418 7.791755 2.334639 7.320022 2.059201 6.730542 1.855519 6.131027 1.634282 5.479802 1.497356 4.803146 1.446793 4.113704 1.398766 3.458657 1.394316 2.765938 1.54828 2.124873 1.692312 1.525376 2.000326 1.033574 2.514523 .721573 2.750056 .57865 3.003473 .471279 3.258355 .373147 3.509547 .276446 3.761498 .182426 4.024623 .128161 4.52261 .025501 5.096406 .043126 5.480005 .438479 5.618259 .581005 5.770308 .760098 5.871175 .934211 5.907441 .996824 5.929308 1.037776 5.885247 1.098978 5.83246 1.172277 5.74708 1.228444 5.679272 1.285787 5.292585 1.612731 5.053224 2.0492 4.992883 2.567898 4.931663 3.094185 5.0734 3.773484 5.586407 4.003165 6.219664 4.286695 6.917055 3.961254 7.4799 3.657892 7.719107 4.499966 8.210264 5.258162 8.980309 5.644423 9.832233 6.071745 10.809806 6.121754 11.685287 6.4884 11.913423 6.583941 12.145782 6.692397 12.313749 6.887068 12.383937 6.968428 12.466283 7.073968 12.494306 7.181573 12.531124 7.322921 12.439725 7.441429 12.369123 7.551623 11.994767 8.135906 10.575109 9.316328 9.836354 9.541014Z" fill="#191847" fill-rule="evenodd"/>
<path transform="matrix(1,0,0,-1,13.054199,83.66528)" d="M6.364184 28.725342H24.163432L26.495699 .00004H0L6.364184 28.725342Z" fill="#c5cfd6" fill-rule="evenodd"/>
<path transform="matrix(1,0,0,-1,13.054199,83.66528)" d="M6.364185 28.725342H11.838466L15.114942 .00004H0L6.364185 28.725342Z" fill-opacity=".1" fill-rule="evenodd"/>
<path transform="matrix(1,0,0,-1,24.850586,82.65454)" d="M28.513106 15.6004C29.350962 12.673143 31.438315 7.124918 34.32463 .75321L37.06735 1.551392C34.667856 16.213219 32.6709 25.920063 31.527016 28.87444 30.771252 30.826403 25.053517 30.597689 25.711289 26.670058 25.987128 25.022995 27.078494 20.612576 28.513106 15.6004ZM17.239516 25.985321C12.766754 25.061043 3.492938 21.793673 .844749 20.749623-.819555 20.093468 .253346 17.868145 1.67316 18.062832 1.913666 18.09581 2.764285 18.190728 4.033501 18.332352 8.110356 18.787266 16.506144 19.724104 22.873776 20.638176 26.226664 21.11948 24.423039 27.383585 20.941769 26.720709 19.770552 26.497694 18.524809 26.250922 17.239516 25.985321Z" fill="#b28b67" fill-rule="evenodd"/>
<path transform="matrix(1,0,0,-1,33.60547,76.504398)" d="M22.94777 24.37909C22.49049 25.867466 1.70352 31.150635 1.70352 31.150635H0V29.567337L14.323872 22.294505C14.304826 22.059823 14.316498 21.811739 14.362698 21.550137 14.259254 16.158417 16.572833 12.130486 18.863446 8.142532 20.361367 5.534655 21.849469 2.943874 22.645415-.00001L27.90806 .783075C27.754755 1.17415 27.512347 2.937357 27.180909 5.348125 26.345217 11.426674 24.943526 21.62212 22.97707 24.31957 22.97033 24.328816 22.96347 24.338007 22.956492 24.347144 22.953942 24.35781 22.951035 24.368458 22.94777 24.37909Z" fill="#3c3c3c" fill-rule="evenodd"/>
<path transform="matrix(1,0,0,-1,23.467774,64.48657)" d="M11.327221 5.957126C10.016585 6.218808 8.809631 6.452355 7.776866 6.633034 1.105907 7.800092-.839402 11.361773 .310768 19.132813H12.601898C14.609675 18.557545 25.043972 14.193131 30.457749 11.87179 34.040746 10.335458 32.911424 4.797212 30.88243 3.355632 30.871424 3.267158 30.834908 3.207066 30.769858 3.180174 23.07676-.000103 16.516388 .237186 12.303663 .389561 10.539228 .453381 9.186625 .502304 8.335114 .278994L7.000878 4.476967 11.327221 5.957126Z" fill="#5a5a5a" fill-rule="evenodd"/>
<path transform="matrix(.439288,.898346,.89924,-.437455,15.140984,66.39321)" d="M2.368623 12.406071C1.333632 12.406071 .108957 12.211041 .007059 11.181078 .002462 11.134615 0 11.090848 0 11.050395 0 10.441362 .202597 9.272936 .202597 9.272936 .907992 9.272936 12.881604 9.272936 12.881604 9.272936 12.881604 9.272936 13.375828 10.909427 12.311015 11.039913 11.246202 11.170401 10.541899 11.275552 10.541899 11.275552L5.378044 13.581296C4.863196 13.811183 4.260193 13.5702 4.04559 13.048797L3.970653 12.866726C3.970653 12.866726 2.984914 12.406071 2.368623 12.406071Z" fill="#e4e4e4" fill-rule="evenodd"/>
<path transform="matrix(1,0,0,-1,57.4834,83.81152)" d="M2.373579 2.938213C1.335847 2.938213 .105299 2.742541 .006463 1.709526 .00225 1.665483 0 1.623919 0 1.585371 0 .977611 .203021-.188374 .203021-.188374 .909892-.188374 12.908556-.188374 12.908556-.188374 12.908556-.188374 13.403814 1.444697 12.336773 1.574911 11.269732 1.705125 10.563955 1.810056 10.563955 1.810056L5.385133 4.112833C4.871017 4.341436 4.269578 4.10105 4.054662 3.581064L3.97896 3.397906C3.97896 3.397906 2.99116 2.938213 2.373579 2.938213Z" fill="#e4e4e4" fill-rule="evenodd"/>
<path transform="matrix(1,0,0,-1,10.213867,62.729738)" d="M42.466814 15.211414 35.281148 20.474366 33.692686 16.557875 40.808378 13.614803C42.82082 11.256962 43.946138 10.27404 44.184328 10.666039 44.385168 10.99656 44.228178 11.305963 44.083574 11.590955 43.970926 11.812964 43.86579 12.020161 43.943189 12.210989 44.119939 12.64678 45.471765 12.600895 46.752744 12.502642 48.03372 12.404388 47.660417 12.9729 47.35154 13.253624 46.043958 14.034293 44.41571 14.68689 42.466814 15.211414ZM4.783608 5.937921C5.443748 7.273708 7.69182 20.292729 7.69182 20.292729L12.399336 20.274264C12.399336 20.274264 8.039325 6.235781 7.69182 5.376801 7.240399 4.26096 8.007199 2.639736 8.527151 1.540419 8.607591 1.370348 8.682122 1.212769 8.745321 1.071484 8.023858 .749485 7.677293 1.138689 7.311922 1.549013 6.899244 2.012466 6.462575 2.502861 5.434631 2.02586 5.037486 1.841572 4.661678 1.623692 4.294516 1.410824 3.026265 .675533 1.861179 .000055 .276241 .975481 .02497 1.130123-.250382 1.712376 .414903 2.167374 2.072371 3.300941 4.460882 5.284888 4.783608 5.937921Z" fill="#b28b67" fill-rule="evenodd"/>
<path transform="matrix(.996214,.086932,.08738,-.996175,28.925116,49.625547)" d="M0 26.993796 1.911352 27.495118C9.655202 21.919722 13.657735 10.259756 23.036572 4.716417L21.142802 1.904829C5.667073 2.459566 .597305 16.66555 0 26.993796Z" fill="#233137" fill-rule="evenodd"/>
<path transform="matrix(1,0,0,-1,22.791993,47.151124)" d="M0 .000072C0 .000072 11.715666 .000072 17.235596 .000072 18.023175 .000072 17.874772 1.134369 17.760922 1.706739 16.446963 8.312603 11.317767 15.433402 11.317767 24.836682L6.34621 25.614258C2.234094 19.01784 .812053 10.896314 0 .000072Z" fill="#dde3e9" fill-rule="evenodd"/>
<path transform="matrix(1,0,0,-1,14.884766,56.75122)" d="M5.969236 4.881697C5.194625 3.026096 4.435033 1.406956 3.719286 .163292H.022863C-.374826 12.98867 4.493406 22.857363 8.567629 28.807845 7.663023 28.872328 6.84651 29.249892 6.330371 30.178807 4.513258 33.449136 5.169503 35.24969 7.11142 35.841547 8.179256 36.167 9.183553 35.94486 10.385747 35.678945 11.369487 35.46135 12.485738 35.214448 13.877748 35.214284 13.878203 35.214284 13.878659 35.214284 13.879115 35.214284 14.01401 35.214284 14.136779 35.20527 14.248221 35.188028L15.89787 35.094137C15.89787 35.094137 22.595902 12.452391 19.592425 4.881697H5.969236Z" fill="#233137" fill-rule="evenodd"/>
<path transform="matrix(1,0,0,-1,20.854004,51.869386)" d="M0-.000093C1.016347 2.434592 2.058551 5.276354 3.061499 8.211182 3.434847 4.979195 4.056598 1.733049 5.091767-.000093H0Z" fill-opacity=".1" fill-rule="evenodd"/>
</g>
</svg>
