<svg xmlns="http://www.w3.org/2000/svg" xmlns:xlink="http://www.w3.org/1999/xlink" version="1.1" width="94.00049" height="94" viewBox="0 0 94.00049 94">
<path transform="matrix(1,0,0,-1,2.26123,104.366458)" d="M11.636621 86.70525C33.797094 101.52742 36.345624 74.121189 52.174806 67.48308 64.5625 66.04471 99.060688 62.91773 90.3444 44.15296 83.089748 23.233147 51.292638 10.486992 26.401457 25.236817 1.510278 39.98665-10.52385 71.88309 11.636621 86.70525Z" fill="#d8e4fd" fill-rule="evenodd"/>
<path transform="matrix(1,0,0,-1,0,41.510988)" d="M.481665 18.851294C-1.258187 10.064581 1.747004 3.93079 8.9849 2.49762 16.222796 1.064445 22.372584 10.064579 24.112437 18.851292 25.852288 27.638005 16.621996 33.63562 10.685632 34.811079 4.749268 35.986536 2.221517 27.638007 .481665 18.851294Z" fill="#dbccb5" fill-rule="evenodd"/>
<path transform="matrix(1,0,0,-1,42.47119,27.20288)" d="M4.917395 8.65834C6.514717 7.696373 8.084154 7.231586 8.820876 7.421326 10.668231 7.897105 10.83808 14.649572 9.408693 17.311606 7.979306 19.973637 .631056 21.133925 .260673 15.859587 .132124 14.029032 .901411 12.39538 2.038029 11.062345L0 1.571243H5.920002L4.917395 8.65834Z" fill="#b28b67" fill-rule="evenodd"/>
<path transform="matrix(1,0,0,-1,41.978029,16.512696)" d="M2.713333 6.407971C6.129482 6.383519 8.506387 6.527355 9.866667 6.900889 9.804647 8.057714 8.601038 9.365479 5.426667 9.365479 1.894889 9.365479 0 7.308654 0 4.929218 0 2.755322 1.400608 .10779 2.466667 .00004 2.742928 .06043 2.978752 .392921 3.213284 .85107 2.774163 1.064488 2.466666 1.56755 2.466666 2.21817 2.466666 2.843575 3.018849 3.450464 3.7 3.450464 3.948458 3.450464 4.179756 3.369717 4.373355 3.236778 4.820923 3.956944 5.381792 4.494844 6.166667 4.4363L5.673333 5.915054 2.713333 6.161513V6.407971Z" fill="#191847" fill-rule="evenodd"/>
<path transform="matrix(1,0,0,-1,21.011719,88.97217)" d="M18.993334 .000031C29.483063 .000031 37.986669 8.110271 37.986669 18.114762 37.986669 28.119252 29.483063 36.229494 18.993334 36.229494 8.503605 36.229494 0 28.119252 0 18.114762 0 8.110271 8.503605 .000031 18.993334 .000031Z" fill="#f9bca2" fill-rule="evenodd"/>
<path transform="matrix(1,0,0,-1,38.3125,87.003177)" d="M31.22125 17.112219C32.138696 13.901297 34.424329 7.815422 37.584814 .826267L40.588068 1.701794C37.96064 17.784424 35.773996 28.431908 34.521455 31.672575 33.6939 33.813695 27.433032 33.562818 28.153286 29.25458 28.455327 27.44791 29.650362 22.610096 31.22125 17.112219ZM18.877116 28.503262C13.979482 27.489417 3.824735 23.905423 .924992 22.7602-.897406 22.040463 .277412 19.599495 1.832096 19.81305 2.095449 19.849225 3.026876 19.953339 4.416667 20.108689 8.880796 20.607686 18.07409 21.635306 25.04658 22.63795 28.717963 23.165898 26.74301 30.037026 22.93105 29.309912 21.648577 29.065287 20.284499 28.7946 18.877116 28.503262Z" fill="#b28b67" fill-rule="evenodd"/>
<path transform="matrix(1,0,0,-1,47.89795,80.257328)" d="M25.127602 26.741694C24.626885 28.374302 1.865339 34.169435 1.865339 34.169435H0V32.43271L15.684825 24.454945C15.663975 24.197533 15.676757 23.925423 15.727343 23.638487 15.614073 17.724284 18.147419 13.306026 20.65562 8.931622 22.29583 6.071028 23.925288 3.229187 24.79684 .000027L30.559391 .858997C30.391524 1.287968 30.126088 3.222038 29.763167 5.866421 28.848093 12.534012 27.313256 23.717446 25.160002 26.676293 25.152485 26.686619 25.144833 26.696885 25.137047 26.707087 25.13428 26.718642 25.131134 26.730177 25.127602 26.741694Z" fill="#3c3c3c" fill-rule="evenodd"/>
<path transform="matrix(1,0,0,-1,36.79834,67.07495)" d="M12.403182 6.534592C10.968058 6.82163 9.646462 7.077808 8.515601 7.275993 1.210958 8.556145-.919138 12.46297 .340289 20.98706H13.798968C15.997466 20.356047 27.422928 15.568701 33.350969 13.02241 37.27445 11.337144 36.03764 5.261867 33.815767 3.680838 33.8037 3.583843 33.763719 3.517963 33.692514 3.488476 25.268639 .000015 18.08509 .260298 13.472197 .427439 11.540155 .497442 10.059065 .551107 9.126668 .306158L7.665691 4.910936 12.403182 6.534592Z" fill="#5a5a5a" fill-rule="evenodd"/>
<path transform="matrix(.43867,.898648,.898939,-.438073,27.653283,69.17914)" d="M2.59728 13.619196C1.462213 13.619196 .118391 13.40527 .007566 12.275625 .002637 12.225389 0 12.178043 0 12.134247 0 11.467138 .222155 10.187294 .222155 10.187294 .995646 10.187294 14.125137 10.187294 14.125137 10.187294 14.125137 10.187294 14.667071 11.979836 13.499466 12.122765 12.331861 12.265695 11.559567 12.380873 11.559567 12.380873L5.805866 14.947232C5.291206 15.176789 4.688604 14.93596 4.473921 14.414921L4.353962 14.123778C4.353962 14.123778 3.273065 13.619196 2.59728 13.619196Z" fill="#e4e4e4" fill-rule="evenodd"/>
<path transform="matrix(1,0,0,-1,74.04492,88.28906)" d="M2.599047 3.240258C1.463002 3.240258 .11709 3.026101 .007353 1.895368 .002561 1.845995 0 1.799437 0 1.756319 0 1.089665 .222306-.189309 .222306-.189309 .996323-.189309 14.134748-.189309 14.134748-.189309 14.134748-.189309 14.677052 1.602013 13.508652 1.744845 12.340252 1.887678 11.567433 2.002778 11.567433 2.002778L5.808461 4.567995C5.294039 4.797133 4.691948 4.556498 4.477163 4.035919L4.356925 3.744497C4.356925 3.744497 3.275292 3.240258 2.599047 3.240258Z" fill="#e4e4e4" fill-rule="evenodd"/>
<path transform="matrix(.997568,-.069698,-.069815,-.99756,14.7629,65.4002)" d="M6.279286 10.717883C7.33529 11.964884 14.128741 25.69165 14.128741 25.69165L18.407118 24.604613C18.407118 24.604613 9.817237 10.172975 9.219976 9.350706 8.444115 8.282551 8.828302 6.353964 9.088813 5.046227 9.129115 4.843912 9.166457 4.656458 9.196086 4.489347 8.34411 4.337627 8.079259 4.843637 7.800037 5.377106 7.484663 5.979645 7.150954 6.617212 5.932219 6.381653 5.461363 6.290646 5.004255 6.158234 4.557664 6.028868 3.015047 5.582014 1.597913 5.171509 .17307 6.629332-.05282 6.860449-.190756 7.55308 .63685 7.861233 2.698719 8.628958 5.763034 10.108256 6.279286 10.717883ZM56.92724 14.503488 49.48127 20.81166 47.446538 16.647103 54.993604 12.882959C57.01131 10.149025 58.165246 8.987448 58.455415 9.398224 58.700078 9.744578 58.552278 10.095154 58.416135 10.418072 58.31008 10.669624 58.211107 10.904393 58.310247 11.107307 58.536657 11.570702 60.009706 11.417236 61.401365 11.211877 62.79302 11.006516 62.428777 11.657162 62.11288 11.987954 60.744379 12.942125 59.01583 13.780637 56.92724 14.503488Z" fill="#b28b67" fill-rule="evenodd"/>
<path transform="matrix(1,0,0,-1,45.818849,48.949464)" d="M2.638108 28.236329 0 27.155329C.027692 26.466879 .024966 25.48752 .021842 24.365504 .01204 20.843918-.001675 15.917012 .908899 14.168427 4.063526 8.110561 10.541056 4.955013 17.755528 1.440462 18.722559 .96937 19.702832 .491827 20.690117-.000019L22.675087 4.048796C22.445157 4.21163 22.217249 4.375389 21.991345 4.540058 22.303206 4.649227 22.563254 4.895794 22.676939 5.232918 22.872683 5.813374 22.560414 6.442474 21.979468 6.638052 20.798851 7.035511 19.697672 7.203074 18.68533 7.130457 11.292375 13.354694 6.315527 20.64125 2.638108 28.236329Z" fill="#2026a2" fill-rule="evenodd"/>
<path transform="matrix(1,0,0,-1,36.551759,49.56079)" d="M0 1.276712C0 1.276712 11.632182-.000071 18.311606 1.276712 18.863297 1.382168 18.83907 3.75839 18.583224 4.40736 14.599038 14.513494 11.978209 21.91166 11.978209 28.931153 10.881638 28.35884 8.14 28.759617 8.14 28.759617 3.22793 21.525803 .970026 13.225829 0 1.276712Z" fill="#191847" fill-rule="evenodd"/>
<path transform="matrix(1,0,0,-1,20.118165,75.96655)" d="M1.680926 27.56033C8.535461 47.135484 22.594098 55.75659 22.594098 55.75659H22.977889 23.926495 25.399376C25.08162 51.558004 26.574633 45.448198 28.30661 38.360486 31.076556 27.025139 34.45771 13.18856 32.020444 .668564 29.023705-.000099 25.502459 .456421 21.690442 .950642 16.1888 1.663918 10.081502 2.455719 4.071192 .056881 4.302913 5.072258 7.233675 10.624123 10.151205 16.15092 12.000595 19.654297 13.844668 23.147599 14.992592 26.4878 14.729249 26.73554 14.591994 27.106955 14.659532 27.489659L14.787725 28.21607C14.874875 28.709904 15.276021 29.069548 15.749604 29.12587 15.832394 29.495638 15.903774 29.862927 15.962727 30.227528 16.263945 32.09047 16.071652 33.931474 15.881518 35.75178 15.777128 36.7512 15.673389 37.744386 15.652339 38.731534 12.348722 35.79093 8.349671 30.663922 4.975258 21.777047L.316518 23.146759C.494659 23.808014 .681327 24.458418 .875874 25.09804 .336643 25.395024-.299097 26.805043 .15506 27.040146 .63493 27.28856 1.144078 27.461377 1.680926 27.56033Z" fill="#1f28cf" fill-rule="evenodd"/>
<path transform="matrix(1,0,0,-1,41.456056,39.187257)" d="M2.274802 18.730957 1.002211 14.820777 3.564928 11.889494 1.248877 9.585975 6.85207 .00008 0 9.566823 2.274802 11.889494 0 14.479921 2.274802 18.730957Z" fill-opacity=".1" fill-rule="evenodd"/>
<path transform="matrix(1,0,0,-1,45.678224,54.221437)" d="M.986666 11.337166C1.531586 11.337166 1.973331 11.77854 1.973331 12.323002 1.973331 12.867464 1.531586 13.308838 .986666 13.308838 .441745 13.308838 0 12.867464 0 12.323002 0 11.77854 .441745 11.337166 .986666 11.337166ZM2.219999 5.668612C2.76492 5.668612 3.206665 6.109985 3.206665 6.654448 3.206665 7.19891 2.76492 7.640284 2.219999 7.640284 1.675079 7.640284 1.233334 7.19891 1.233334 6.654448 1.233334 6.109985 1.675079 5.668612 2.219999 5.668612ZM3.453331 .985891C3.453331 .441429 3.011586 .000055 2.466665 .000055 1.921745 .000055 1.48 .441429 1.48 .985891 1.48 1.530354 1.921745 1.971727 2.466665 1.971727 3.011586 1.971727 3.453331 1.530354 3.453331 .985891Z" fill-opacity=".4" fill-rule="evenodd"/>
</svg>
