<svg xmlns="http://www.w3.org/2000/svg" xmlns:xlink="http://www.w3.org/1999/xlink" version="1.1" width="94" height="94" viewBox="0 0 94 94">
<path transform="matrix(1,0,0,-1,0,94.15918)" d="M68.57539 50.60955C43.50917 59.014619 34.375207 50.29677 14.239925 45.329057-11.571314 30.669672 2.580658 4.90015 18.434334 6.970612 38.43305 6.619446 80.14387 9.979954 88.89857 14.713665 100.5718 21.025437 91.55209 41.15348 68.57539 50.60955Z" fill="#ebe2d7" fill-rule="evenodd"/>
<path transform="matrix(1,0,0,-1,8,80.341068)" d="M55.48833 67.21014C63.131269 64.06664 80.81078 55.645956 56.99686 35.319356 42.633264 23.05917 24.38258 11.555756 10.114638 22.19489-4.153304 32.834024-2.964572 57.85473 11.399026 70.114917 32.29603 91.8967 37.785718 72.99239 55.48833 67.21014Z" fill="#d8e4fd" fill-rule="evenodd"/>
<path transform="matrix(1,0,0,-1,37.353517,35.12671)" d="M4.644285 8.299796C6.152892 7.377662 7.635163 6.932119 8.330969 7.114003 10.075723 7.570083 10.236138 14.042952 8.886139 16.594759 7.536139 19.146565 .596007 20.258809 .246194 15.202864 .124786 13.448107 .851346 11.882099 1.924837 10.60426L0 1.506153H5.591208L4.644285 8.299796Z" fill="#b28b67" fill-rule="evenodd"/>
<path transform="matrix(1,0,0,-1,36.421876,26.025147)" d="M2.427082 .3646C1.72533 3.530653-.273845 5.688845 .031477 7.103935 .336799 8.519026 1.659027 8.863925 1.659027 8.863925 1.659027 8.863925 2.34287 11.669428 6.070098 11.250504 9.797327 10.831581 12.072219 9.261866 11.089806 5.807806 10.186736 5.807806 9.096539 6.139008 7.589023 5.571552 6.871529 5.301474 6.562677 3.896484 6.562677 3.896484H5.881437C5.881437 3.896484 4.889678 5.563823 3.925675 5.121888 2.961672 4.679952 3.487408 2.97496 3.487408 2.97496L3.151828 .3646H2.427082Z" fill="#191847" fill-rule="evenodd"/>
<path transform="matrix(1,0,0,-1,18.017579,92.447757)" d="M14.647735 29.29541C6.558013 29.29541 0 22.737393 0 14.64767 0 6.557947 6.558018-.000071 14.64774-.000071H19.598412C27.688134-.000071 34.246149 6.557947 34.246149 14.64767 34.246149 22.737393 27.68813 29.29541 19.598408 29.29541H14.647735ZM10.523076 22.680302C8.313937 22.680302 6.523076 20.889443 6.523076 18.680304V10.615038C6.523076 8.405899 8.313934 6.615038 10.523073 6.615038H23.723073C25.93221 6.615038 27.723073 8.405897 27.723073 10.615036V18.680302C27.723073 20.88944 25.932213 22.680302 23.723074 22.680302H10.523076Z" fill="#a1a8ac" fill-rule="evenodd"/>
<path transform="matrix(1,0,0,-1,59.95117,92.35278)" d="M15.412853 1.086079C10.819707 6.774086 7.711874 10.990919 6.089355 13.736581 3.311209 18.43782 1.03743 22.621054 .319882 24.21903-1.391204 28.02961 4.259078 29.813933 5.537865 28.036553 7.47336 25.346415 11.60689 16.881314 17.938456 2.641245L15.412853 1.086079Z" fill="#b28b67" fill-rule="evenodd"/>
<path transform="matrix(1,0,0,-1,57.15576,90.85742)" d="M8.796267 1.244623 .248156 23.065793C-1.580115 27.043646 7.248944 29.658387 8.592585 27.807173 11.643065 23.604346 18.893353 7.024801 19.802193 5.772638L8.796267 1.244623Z" fill="#3c3c3c" fill-rule="evenodd"/>
<path transform="matrix(.77283,.634649,.623999,-.781454,41.662958,86.465999)" d="M.422716 1.916576C.186892 4.877119-.251239 15.125906 .187129 19.86969 .313098 21.232863 .445816 22.550833 .579563 23.787205 .977106 27.462141 7.771397 27.345976 7.231844 23.8546 5.888147 15.159699 3.523087 2.974298 3.353574 1.921412 3.115995 .445745 .570924 .055965 .422716 1.916576Z" fill="#b28b67" fill-rule="evenodd"/>
<path transform="matrix(.862965,.505263,.494755,-.869032,38.461599,92.31299)" d="M2.463402 9.490711C1.387769 9.490711 .118397 9.288254 .008196 8.218281 .002866 8.166531 0 8.117895 0 8.073138 0 7.436299 .210704 6.214526 .210704 6.214526 .944325 6.214526 13.397054 6.214526 13.397054 6.214526 13.397054 6.214526 13.911054 7.925734 12.803633 8.062179 11.696212 8.198623 10.963727 8.308575 10.963727 8.308575L5.558453 10.735212C5.042665 10.966769 4.437631 10.725015 4.223436 10.201778L4.129536 9.972399C4.129536 9.972399 3.104354 9.490711 2.463402 9.490711Z" fill="#e4e4e4" fill-rule="evenodd"/>
<path transform="matrix(1,0,0,-1,72.99756,93.6709)" d="M2.454699 3.093318C1.383863 3.093318 .124312 2.892159 .009329 1.827515 .003274 1.771451 0 1.718906 0 1.670824 0 1.031774 .20996-.194242 .20996-.194242 .940989-.194242 13.349718-.194242 13.349718-.194242 13.349718-.194242 13.861902 1.522907 12.758394 1.659826 11.654886 1.796744 10.92499 1.907078 10.92499 1.907078L5.545828 4.338969C5.028831 4.572701 4.421157 4.329954 4.207493 3.804345L4.114945 3.576678C4.114945 3.576678 3.093385 3.093318 2.454699 3.093318Z" fill="#e4e4e4" fill-rule="evenodd"/>
<path transform="matrix(1,0,0,-1,32.03369,87.41846)" d="M22.294693 18.537005C22.294693 18.537005 11.637568 20.29768 8.018118 20.944891 1.140214 22.174763-.865442 25.92814 .320409 34.11743H12.99283C15.508318 33.380758 34.014196 25.005248 34.014196 25.005248 36.23391 23.887804 35.820528 20.593016 35.4148 19.50753 35.38998 19.441124 24.188759-.000107 24.188759-.000107L13.822184 6.697039 22.314162 17.747836C22.314162 17.747836 22.650559 18.434947 22.294693 18.537005Z" fill="#5a5a5a" fill-rule="evenodd"/>
<path transform="matrix(1,0,0,-1,18.754395,71.73682)" d="M43.918169 15.994404 36.486925 21.52832 34.844175 17.410187 42.203054 14.315593C44.28427 11.836357 45.448049 10.80283 45.69438 11.21501 45.90208 11.562548 45.739728 11.88788 45.59018 12.187546 45.473684 12.420986 45.36496 12.63885 45.445 12.839502 45.627794 13.297731 47.025819 13.249482 48.35057 13.146171 49.675329 13.042859 49.28927 13.64064 48.969839 13.935818 47.61756 14.75668 45.93367 15.442875 43.918169 15.994404ZM4.947093 6.243458C5.629796 7.64802 7.954697 21.337332 7.954697 21.337332L12.823098 21.317917C12.823098 21.317917 8.314078 6.556654 7.954697 5.65345 7.487848 4.480156 8.280857 2.775461 8.81858 1.619545 8.901768 1.44072 8.978846 1.275028 9.044204 1.126471 8.298083 .787893 7.939674 1.197136 7.561816 1.628586 7.135034 2.1159 6.683441 2.631542 5.620366 2.129984 5.209649 1.936207 4.820997 1.707109 4.441288 1.483282 3.129693 .710135 1.924787-.000122 .285682 1.025526 .025824 1.188128-.258939 1.800358 .429083 2.278782 2.143197 3.470713 4.613338 5.556805 4.947093 6.243458Z" fill="#b28b67" fill-rule="evenodd"/>
<path transform="matrix(.996087,.088376,.085952,-.996299,38.104425,57.96137)" d="M0 28.383578 1.976927 28.910645C9.986453 23.048928 14.126306 10.790173 23.826912 4.96216L21.868172 2.006184C5.861499 2.589409 .617797 17.524931 0 28.383578Z" fill="#e87613" fill-rule="evenodd"/>
<path transform="matrix(1,0,0,-1,31.762207,55.355958)" d="M0-.000082C0-.000082 12.11606-.000082 17.824639-.000082 18.639134-.000082 18.485659 1.192614 18.367918 1.794455 17.009055 8.740421 11.704563 16.22784 11.704563 26.11525L6.563098 26.932862C2.310447 19.996825 .839805 11.457156 0-.000082Z" fill="#dde3e9" fill-rule="evenodd"/>
<path transform="matrix(1,0,0,-1,23.58496,65.450199)" d="M6.173241 5.132881C5.372157 3.181744 4.586605 1.479244 3.846397 .171551H.023644C-.387636 13.657249 4.646975 24.034035 8.860438 30.29088 7.924916 30.358685 7.080498 30.755688 6.54672 31.732428 4.667505 35.17113 5.346178 37.06439 7.354462 37.686716 8.458793 38.028924 9.497412 37.795347 10.740692 37.51574 11.758053 37.286947 12.912453 37.02733 14.352036 37.027158 14.352507 37.027158 14.352979 37.027158 14.35345 37.027158 14.492955 37.027158 14.619921 37.017679 14.735172 36.999547L16.441195 36.90082C16.441195 36.90082 23.368142 13.093359 20.262015 5.132881H6.173241Z" fill="#ff9b21" fill-rule="evenodd"/>
<path transform="matrix(1,0,0,-1,29.7583,60.317384)" d="M0-.000006C1.051082 2.560031 2.128905 5.548104 3.166131 8.634033 3.552238 5.235645 4.195238 1.822369 5.265785-.000006H0Z" fill-opacity=".1" fill-rule="evenodd"/>
</svg>
