<?xml version="1.0" encoding="UTF-8" standalone="no"?>
<svg
   xmlns:dc="http://purl.org/dc/elements/1.1/"
   xmlns:cc="http://creativecommons.org/ns#"
   xmlns:rdf="http://www.w3.org/1999/02/22-rdf-syntax-ns#"
   xmlns:svg="http://www.w3.org/2000/svg"
   xmlns="http://www.w3.org/2000/svg"
   viewBox="0 0 125.33333 126.53841"
   height="126.53841"
   width="125.33333"
   xml:space="preserve"
   id="svg2"
   version="1.1"><metadata
     id="metadata8"><rdf:RDF><cc:Work
         rdf:about=""><dc:format>image/svg+xml</dc:format><dc:type
           rdf:resource="http://purl.org/dc/dcmitype/StillImage" /></cc:Work></rdf:RDF></metadata><defs
     id="defs6" /><g
     transform="matrix(1.3333333,0,0,-1.3333333,0,126.53841)"
     id="g10"><g
       transform="matrix(-1,0,0,1,94,-4.651367)"
       id="g12"><path
         id="path14"
         style="fill:#ebe2d7;fill-opacity:1;fill-rule:evenodd;stroke:none"
         d="M 0.082291,39.820557 C 3.446593,55.460442 73.152039,85.411362 86.468979,70.673767 99.785927,55.936165 96.415146,24.93734 68.507751,17.854675 40.600353,10.772007 -2.125831,14.121017 0.082291,39.820557 Z" /></g><g
       transform="matrix(0.998099,-0.061624,-0.058409,-0.998293,54.542545,76.586464)"
       id="g16"><path
         id="path18"
         style="fill:#f9bca2;fill-opacity:1;fill-rule:evenodd;stroke:none"
         d="M 25.637762,6.498177 C 44.911003,4.087833 39.491657,18.814409 39.65163,26.190371 39.868649,36.196297 40.34515,40.318024 30.274012,43.643818 16.121689,45.413734 -0.007018,41.022827 2e-6,29.879559 0.007023,18.736292 11.485438,8.268093 25.637762,6.498177 Z" /></g><g
       transform="translate(46.186523,59.638916)"
       id="g20"><path
         id="path22"
         style="fill:#b28b67;fill-opacity:1;fill-rule:evenodd;stroke:none"
         d="M 4.71804,8.359793 C 6.250605,7.430997 7.756416,6.982238 8.463271,7.165435 10.235734,7.624808 10.398697,14.144431 9.027258,16.71467 7.655819,19.284908 0.605471,20.405186 0.250104,15.312721 0.126767,13.54529 0.864866,11.96797 1.955405,10.680902 L 0,1.517078 h 5.68 z" /></g><g
       transform="translate(17.07666,69.296875)"
       id="g24"><path
         id="path26"
         style="fill:#191847;fill-opacity:1;fill-rule:evenodd;stroke:none"
         d="m 34.899803,10.018989 c -0.748607,0.123435 -2.764263,0.208299 -3.135988,0.208245 -0.237549,0 -0.49498,-0.05457 -0.635674,0.164743 -0.115215,0.179591 -0.07301,0.483329 -0.107395,0.691737 -0.03993,0.242103 -0.09664,0.481082 -0.154001,0.719461 -0.163237,0.678314 -0.410074,1.323647 -0.755451,1.929534 -0.648058,1.136716 -1.597439,2.027109 -2.795994,2.545228 -1.323549,0.572082 -2.821253,0.703077 -4.244917,0.58704 C 21.546877,16.740829 20.167757,16.235149 18.729319,15.759271 17.358564,15.3058 15.922841,15.127306 14.489182,15.348753 13.044713,15.571845 11.95328,16.35902 10.734899,17.106148 9.487617,17.871025 8.062216,18.371284 6.587707,18.256287 5.211303,18.148905 3.942728,17.577478 2.80458,16.814135 1.739711,16.099934 0.861057,15.24066 0.364991,14.031297 -0.168666,12.730385 -0.168177,11.302423 0.709391,10.152723 1.981388,8.48622 4.342807,8.055267 6.307407,8.098111 c 1.136356,0.024709 2.252396,0.233281 3.32525,0.61268 1.43078,0.506011 2.667196,1.363642 4.005738,2.059489 0.628176,0.326529 1.277484,0.59471 1.958082,0.787888 0.660443,0.187535 1.310946,0.27355 1.908919,-0.127598 0.632576,-0.424379 1.199423,-0.841251 1.923097,-1.106912 0.694232,-0.254869 1.429585,-0.397423 2.16923,-0.39167 1.439091,0.011177 2.857702,0.462017 4.2554,0.764001 1.139778,0.246212 2.359302,0.491602 3.521297,0.254923 0.484877,-0.09878 1.193123,-0.302698 1.368258,-0.809366 -2.947552,-0.537128 -4.1052,-4.202362 -3.274241,-6.892994 0.448481,-1.452232 3.144356,-3.149877 4.192547,-2.386415 0.664059,0.483673 0.260908,1.11865 0,1.537824 -0.499651,0.802735 -0.670601,1.833877 0.253954,2.392756 0.797499,0.482014 1.636011,-0.662642 1.651873,-0.661381 0.219188,0.017368 2.113166,1.094349 3.418079,2.665939 1.287304,-0.076727 1.482605,0.776726 1.175224,1.474692 -0.307384,0.697966 -2.225971,1.576362 -3.260311,1.747022 z" /></g><g
       transform="translate(25.59668)"
       id="g28"><path
         id="path30"
         style="fill:#c0c0c0;fill-opacity:1;fill-rule:evenodd;stroke:none"
         d="m 18.223335,6.1e-5 c 10.064471,0 18.223336,7.830576 18.223336,17.490082 0,9.659506 -8.158865,17.490082 -18.223336,17.490082 C 8.158865,34.980225 0,27.149649 0,17.490143 0,7.830637 8.158865,6.1e-5 18.223335,6.1e-5 Z" /></g><g
       transform="translate(42.196289,1.901123)"
       id="g32"><path
         id="path34"
         style="fill:#b28b67;fill-opacity:1;fill-rule:evenodd;stroke:none"
         d="M 29.955528,16.52195 C 30.835779,13.421749 33.028751,7.545732 36.061111,0.797583 L 38.942608,1.64292 C 36.4217,17.170975 34.3237,27.451303 33.121941,30.580223 32.327934,32.647511 26.320885,32.405285 27.01194,28.245607 27.301735,26.501236 28.448324,21.830246 29.955528,16.52195 Z M 18.11183,27.520197 C 13.412747,26.541311 3.669679,23.080906 0.887493,21.97517 -0.861025,21.280251 0.266166,18.923458 1.757822,19.129646 c 0.252677,0.03493 1.146349,0.135453 2.479804,0.285446 4.283156,0.481791 13.103738,1.473977 19.793555,2.442048 3.522543,0.50974 1.627655,7.143932 -2.029766,6.441892 -1.23048,-0.236191 -2.539259,-0.497543 -3.889585,-0.778835 z" /></g><g
       transform="translate(51.393555,8.414062)"
       id="g36"><path
         id="path38"
         style="fill:#1f28cf;fill-opacity:1;fill-rule:evenodd;stroke:none"
         d="M 24.108913,25.819599 C 23.628496,27.395912 1.789717,32.991211 1.789717,32.991211 H 0 v -1.67684 l 15.048954,-7.702667 c -0.02,-0.248535 -0.0077,-0.511261 0.04079,-0.788302 C 14.981068,17.113136 17.41171,12.847233 19.818229,8.623671 21.391944,5.861719 22.955342,3.117874 23.791562,6.5e-5 l 5.528933,0.829349 c -0.161061,0.414179 -0.415736,2.281552 -0.763943,4.834744 -0.877976,6.437672 -2.350594,17.235477 -4.416554,20.092296 -0.0072,0.01 -0.01456,0.01988 -0.02203,0.02974 -0.0027,0.01115 -0.0057,0.02229 -0.0091,0.03341 z" /></g><g
       transform="translate(40.743164,21.141846)"
       id="g40"><path
         id="path42"
         style="fill:#2b44ff;fill-opacity:1;fill-rule:evenodd;stroke:none"
         d="M 11.900348,6.30932 C 10.523404,6.586461 9.255387,6.833805 8.170373,7.025157 1.161865,8.261165 -0.881875,12.033273 0.326493,20.263428 h 12.913056 c 2.10937,-0.609255 13.071637,-5.23152 18.759349,-7.690007 3.764419,-1.627153 2.577751,-7.492938 0.445957,-9.019449 C 32.433277,3.460323 32.394917,3.396715 32.326599,3.368244 24.244232,7.6e-5 17.351908,0.251383 12.926022,0.41276 11.072308,0.48035 9.651262,0.532166 8.756665,0.295662 L 7.354918,4.741653 Z" /></g><g
       transform="matrix(0.436443,-0.899732,0.897849,0.440304,31.903709,19.078512)"
       id="g44"><path
         id="path46"
         style="fill:#e4e4e4;fill-opacity:1;fill-rule:evenodd;stroke:none"
         d="m 2.504698,13.155279 c -1.095169,0 -2.394346,-0.206523 -2.497993,-1.296777 C 0.002333,11.81251 0,11.769093 0,11.728799 0,11.087958 0.214236,9.858507 0.214236,9.858507 c 0.745919,0 13.407402,0 13.407402,0 0,0 0.522617,1.721961 -0.603368,1.859263 -1.125986,0.137302 -1.87075,0.247945 -1.87075,0.247945 L 5.63038,14.417043 C 5.116398,14.645411 4.515247,14.405135 4.300273,13.885408 L 4.198762,13.639994 c 0,0 -1.042368,-0.484715 -1.694064,-0.484715 z" /></g><g
       transform="translate(76.47998,0.667725)"
       id="g48"><path
         id="path50"
         style="fill:#e4e4e4;fill-opacity:1;fill-rule:evenodd;stroke:none"
         d="m 2.493681,3.119803 c -1.089079,0 -2.37529,-0.205062 -2.485637,-1.288537 C 0.002811,1.779882 0,1.731559 0,1.687034 0,1.043368 0.213294,-0.191503 0.213294,-0.191503 c 0.742638,0 13.348431,0 13.348431,0 0,0 0.520318,1.729552 -0.600715,1.867459 -1.121033,0.137908 -1.862521,0.249038 -1.862521,0.249038 L 5.614366,4.383207 C 5.098848,4.614284 4.494396,4.372751 4.280084,3.850042 L 4.180295,3.606655 c 0,0 -1.037784,-0.486852 -1.686614,-0.486852 z" /></g><g
       transform="translate(19.679688,26.397949)"
       id="g52"><path
         id="path54"
         style="fill:#b28b67;fill-opacity:1;fill-rule:evenodd;stroke:none"
         d="m 54.962181,25.310072 -8.575516,-3.786642 2.738221,-3.527096 6.422554,4.951099 c 3.207969,0.59245 4.695724,1.101416 4.463264,1.526898 -0.196003,0.358753 -0.560707,0.378977 -0.896641,0.397604 -0.261692,0.01451 -0.505924,0.02805 -0.639339,0.199909 -0.304684,0.392464 0.447288,1.604843 1.209812,2.724676 0.762524,1.119835 0.04783,1.079378 -0.370502,0.945469 -1.399003,-0.78281 -2.849621,-1.926782 -4.351853,-3.431917 z m -38.395513,-5.79711 -4.849707,0.967509 C 8.427907,11.764103 6.46705,6.987597 5.834388,6.150951 5.37045,5.537432 2.509289,3.957172 0.572691,3.113234 -0.204634,2.774487 -0.037736,2.114029 0.190251,1.902731 1.628324,0.569929 2.96524,1.037081 4.420535,1.545595 4.841846,1.692812 5.273079,1.843494 5.719561,1.954975 6.875204,2.243525 7.226874,1.646013 7.559224,1.081329 7.853476,0.581377 8.132582,0.107159 8.941103,0.296394 8.904333,0.455927 8.859154,0.634674 8.810392,0.827589 8.495204,2.074581 8.03038,3.913586 8.719992,4.982065 c 0.353909,0.548346 2.969468,5.391979 7.846676,14.530897 z" /></g><g
       transform="matrix(0.996153,-0.087628,0.086686,0.996236,47.074203,38.07563)"
       id="g56"><path
         id="path58"
         style="fill:#db2721;fill-opacity:1;fill-rule:evenodd;stroke:none"
         d="m 0,27.148779 2.008189,0.530909 C 6.825725,23.739449 9.5433,13.494109 12.622533,12.377175 c 2.911291,-1.056016 6.767983,0.552912 11.334555,2.669001 l 1.726058,-3.116274 C 21.804909,6.893755 13.021556,2.154608 9.126884,4.076471 2.900115,7.149132 0.418103,19.861729 0,27.148779 Z" /></g><g
       transform="translate(40.506348,39.263672)"
       id="g60"><path
         id="path62"
         style="fill:#dde3e9;fill-opacity:1;fill-rule:evenodd;stroke:none"
         d="m 0,-3.6e-5 c 0,0 12.308475,0 18.107712,0 0.827431,0 0.671518,1.201311 0.551906,1.807499 C 17.279175,8.8036 11.890443,16.345098 11.890443,26.303925 L 6.667327,27.127441 C 2.347139,20.141306 0.853142,11.539957 0,-3.6e-5 Z" /></g><g
       transform="translate(25.59668,31.886963)"
       id="g64"><path
         id="path66"
         style="fill:#ff4133;fill-opacity:1;fill-rule:evenodd;stroke:none"
         d="m 21.300003,34.50415 h -0.05963 C 9.525031,27.245314 2.444907,15.993055 0,0.747379 L 3.795529,-9.5e-5 C 6.309758,2.945036 9.412563,7.765072 13.103945,14.460011 11.971408,10.427046 11.144547,6.290756 10.886668,2.379505 h 16.299775 c 3.155455,8.017973 -3.877992,32.124645 -3.877992,32.124645 h -1.12534 z" /></g></g></svg>