<svg xmlns="http://www.w3.org/2000/svg" xmlns:xlink="http://www.w3.org/1999/xlink" version="1.1" width="94" height="94" viewBox="0 0 94 94">
<defs>
<clipPath id="clip_0">
<path transform="matrix(1,0,0,-1,0,94)" d="M0 0H94V94H0Z"/>
</clipPath>
</defs>
<g>
<path transform="matrix(1,0,0,-1,0,97.64331)" d="M.081416 37.161485C1.404138 51.67948 72.37382 79.700748 85.549098 65.94958 98.724369 52.198419 95.38945 23.274453 67.77894 16.665852 40.168436 10.057255-2.103216 13.182098 .081416 37.161485Z" fill="#f5f7c3" fill-rule="evenodd"/>
<g opacity=".5">
<g clip-path="url(#clip_0)">
<path transform="matrix(1,0,0,-1,18.77539,65.997318)" d="M9.336013 43.74769C9.937534 44.460054 11.053786 46.26923 11.900415 46.523778 12.445724 46.687734 12.286731 44.99176 12.293466 44.668375 12.31969 43.417249 12.17304 42.174058 11.991939 40.933435 11.665667 38.69598 10.598786 36.703355 9.135481 34.79905 8.382495 33.819169 7.499302 32.827409 6.276038 32.216009 5.712969 31.934447 5.035455 31.887305 4.479388 31.644717 3.831768 31.362313 4.184461 31.590607 3.8926 31.030102 3.48729 30.251917 3.357649 29.247975 3.170118 28.417622 2.30907 24.605856 .224487 4.455872 .585874 .578575 .617971 .234909 .041011 .152729 .012209 .572273-.14088 2.796818 1.18383 18.201746 1.852168 23.239602 2.520507 28.277455 3.196835 32.72815 3.874988 34.47109 4.697689 36.585645 6.183533 39.128564 7.420394 41.10048 7.994907 42.016588 8.621137 42.901136 9.336013 43.74769Z" fill="#69a1ac" fill-rule="evenodd"/>
<path transform="matrix(1,0,0,-1,18.841797,68.66455)" d="M17.219126 24.930212C19.094277 26.015154 21.123988 23.967543 19.427168 22.882433 18.489127 22.28265 17.50846 22.49601 16.95637 22.99584 16.597975 22.65155 16.262532 22.291562 15.940212 21.987494 14.958189 21.060948 14.030029 20.112286 13.142977 19.141505 11.300263 17.12473 9.72109 14.99405 8.069953 12.902331 6.440496 10.837918 4.824069 8.762932 3.347152 6.646215 2.095994 4.852844 .428358 2.743086 0 .777021 .649932 4.946705 3.116131 8.95451 6.052944 12.630405 8.965859 16.276104 12.308768 20.25761 16.819043 23.134716 16.360007 23.666716 16.347264 24.426104 17.219126 24.930212Z" fill="#69a1ac" fill-rule="evenodd"/>
<path transform="matrix(1,0,0,-1,2.601074,69.08325)" d="M.273855 31.071293C1.149763 30.92902 2.580987 29.283318 3.302996 28.656292 4.161056 27.911162 4.939529 27.116959 5.673332 26.28483 7.253058 24.493708 8.665846 22.589375 9.867196 20.603487 11.825711 17.366095 13.394736 14.042797 14.533445 10.517458 15.230491 8.35947 15.681798 6.122799 15.949267 3.901749 15.99978 3.482872 16.528538 .253408 15.76663 .166367 15.081375 .08799 15.293025 2.618563 15.259966 2.962784 14.886274 6.846233 13.766801 10.624796 12.209623 14.285141 11.870447 15.082513 11.555341 16.05915 11.012918 16.776709 10.622299 17.293553 11.010118 17.113312 10.323655 17.308915 9.734217 17.476969 9.062636 17.435904 8.459039 17.641617 7.147782 18.08824 6.097842 18.955265 5.177498 19.827393 3.388946 21.522297 1.97161 23.355916 1.232812 25.527684 .822978 26.731858 .446362 27.943036 .237363 29.184447 .183299 29.505314-.290311 31.162932 .273855 31.071293Z" fill="#69a1ac" fill-rule="evenodd"/>
<path transform="matrix(1,0,0,-1,4.318848,67.01636)" d="M2.012743 56.38571C5.312108 51.63332 8.023392 46.412939 9.774087 41.12548 10.834799 37.921869 11.576587 34.63449 12.313612 31.370862 13.454762 26.317538 14.534161 21.264603 14.841199 16.121518 15.150098 10.948624 15.760925 4.9823 13.721516-.000015 14.740211 5.058388 13.770345 10.442665 13.59862 15.532463 13.516558 17.96225 13.278754 20.368283 12.966802 22.78387 12.664083 25.127121 12.169524 27.459214 11.70898 29.784047 11.48464 30.916283 11.249032 32.046815 11.009151 33.176729 10.937539 33.51384 10.907288 34.514169 10.649818 34.74446 10.390681 34.976274 9.06853 35.070775 8.653436 35.240865 7.817578 35.583444 7.031342 36.070058 6.335502 36.584226 5.001567 37.56987 3.841112 38.85774 2.925188 40.12728 .805976 43.06481-.041284 46.649663 .00154 50.05169 .009768 50.71221 1.288746 57.824956 .775088 57.922906 .806014 57.952989 .835269 57.984048 .862853 58.016359 1.251736 57.47557 1.633343 56.931119 2.012743 56.38571Z" fill="#89c5cc" fill-rule="evenodd"/>
<path transform="matrix(1,0,0,-1,18.34668,69.68286)" d="M23.596066 41.91237C23.646973 41.973356 23.978304 42.397497 23.811457 42.37039 24.151165 42.42558 23.34421 41.902608 24.190646 42.2235 23.788752 41.908254 24.020697 41.498739 24.026062 41.074449 24.034813 40.38559 23.896044 39.702379 23.739834 39.0283 23.493 37.962789 23.125283 36.926797 22.591547 35.93574 21.428256 33.77601 19.452927 31.696869 17.107844 30.346619 15.95014 29.679945 14.81554 29.452969 13.495179 29.146058 12.661184 28.95216 12.595047 28.593848 12.152361 27.921677 11.23072 26.52169 10.325492 25.126742 9.512687 23.67952 8.542143 21.951386 7.599979 20.221344 6.711246 18.462788 3.717261 12.539183 1.280435 6.402241 .000688 .051102-.030645 3.793808 1.011804 7.648476 2.326752 11.215899 3.284613 13.815041 4.531568 16.320538 5.861567 18.800669 6.183853 19.401509 6.672248 20.174395 6.809113 20.83775 6.904945 21.302529 6.611957 21.74951 6.47781 22.239119 5.954835 24.145747 5.992266 26.281783 6.451517 28.198605 6.957876 30.312264 8.422242 31.293286 10.899406 31.59267 11.805356 31.702183 12.956841 31.662047 13.787551 31.982874 14.692597 32.332246 15.065943 33.48062 15.580585 34.217794 16.962899 36.19798 18.605286 38.097105 20.491202 39.765577 21.013394 40.2276 21.57496 40.653844 22.170723 41.048925 22.54641 41.298196 23.340037 41.605298 23.596066 41.91237Z" fill="#89c5cc" fill-rule="evenodd"/>
<path transform="matrix(1,0,0,-1,13.335449,72.128177)" d="M.30477 4.822398C.145839 5.717474 .834192 6.538818 1.743268 6.538818H8.70595C9.615026 6.538818 10.303379 5.717474 10.144448 4.822398L9.998616 4.001089C9.587626 1.686451 7.575452 .000088 5.224609 .000088 2.873765 .000088 .861592 1.68645 .450602 4.001089L.30477 4.822398Z" fill="#69a1ac" fill-rule="evenodd"/>
</g>
</g>
<path transform="matrix(1,0,0,-1,48.324708,31.528809)" d="M4.527469 8.44364C5.998132 7.505506 7.443121 7.052235 8.121426 7.237273 9.822295 7.701265 9.978676 14.286436 8.662632 16.882515 7.346588 19.478594 .581015 20.610135 .240001 15.466472 .121646 13.681271 .829933 12.088093 1.876423 10.788084L0 1.532131H5.450575L4.527469 8.44364Z" fill="#b28b67" fill-rule="evenodd"/>
<path transform="matrix(1,0,0,-1,39.694826,23.3667)" d="M17.807282 7.554797C17.75329 7.891303 17.621342 8.264989 17.514874 8.583355 17.37761 8.993771 17.169884 9.363812 16.941287 9.712562 16.51091 10.369153 15.99462 10.962071 15.424586 11.454178 14.383349 12.353055 13.057904 12.871531 11.754492 12.703156 11.096397 12.618148 10.457556 12.352482 9.913814 11.910291 9.422548 11.510767 8.950007 10.922639 8.313876 10.880382 7.621712 10.834438 6.987234 11.480998 6.432124 11.880317 5.806234 12.330493 5.140397 12.658523 4.408884 12.786033 3.183431 12.999574 2.032206 12.561396 1.187644 11.497335 .288915 10.365017-.364392 8.704477 .225809 7.204165 .335515 6.925272 .47665 6.690151 .679203 6.495283 .864968 6.316588 1.148682 6.126469 1.224001 5.840943 1.304002 5.537441 1.065021 5.145902 .97235 4.872046 .839591 4.479688 .730589 4.067838 .76934 3.641371 .83301 2.941007 1.248885 2.272417 1.688025 1.812086 2.134908 1.343648 2.684916 1.075034 3.272371 .951209 3.66463 .868536 4.065512 .822921 4.464177 .853959 4.662084 .869355 4.836726 .927541 5.028473 .973811 5.214942 1.018813 5.319157 .9664 5.477363 .858176 6.21229 .355342 7.002509 .160801 7.851119 .235571 8.567322 .298712 9.392808 .482402 9.97706 1.001738 10.625898 1.578523 10.612982 2.373885 10.460301 3.223666 10.622062 3.138824 11.069578 3.086288 10.802159 3.424473 10.696219 3.558412 10.49606 3.612912 10.360133 3.691695 10.201858 3.783418 10.041152 3.90196 9.918248 4.051582 9.421985 4.655721 9.92321 5.885207 10.546953 6.087815 11.473662 6.38882 11.681144 5.001808 12.342687 4.643027 12.72305 4.436734 13.120939 4.718697 13.405921 5.006598 13.787657 5.392282 14.047826 5.903224 14.272447 6.423174 14.457472 6.851361 14.629649 7.285568 14.81823 7.711626 14.90629 7.910589 15.211157 8.473042 15.058055 8.698008 15.721815 8.838089 16.461108 8.546174 17.03276 8.163357 17.26903 8.005095 17.449164 7.830618 17.5752 7.551234 17.602196 7.491369 17.660973 7.313412 17.73478 7.306123 17.872185 7.292529 17.820832 7.47024 17.807282 7.554797" fill="#191847" fill-rule="evenodd"/>
<path transform="matrix(1,0,0,-1,30.1875,88.39526)" d="M13.856624 27.713135C6.203821 27.713135 0 21.509318 0 13.856514 0 6.203711 6.203829-.000107 13.856632-.000107H17.33724C24.990044-.000107 31.193865 6.203711 31.193865 13.856514 31.193865 21.509318 24.990036 27.713135 17.337233 27.713135H13.856624ZM9.941688 21.455307C7.732549 21.455307 5.941688 19.664443 5.941688 17.455304V10.257723C5.941688 8.048584 7.732548 6.257725 9.941688 6.257725H21.252177C23.461316 6.257725 25.252179 8.04859 25.252179 10.257729V17.455307C25.252179 19.664446 23.461318 21.455307 21.252179 21.455307H9.941688Z" fill="#c5cfd6" fill-rule="evenodd"/>
<path transform="matrix(1,0,0,-1,68.38428,88.30542)" d="M14.039144 1.027485C9.855373 6.408285 7.024534 10.397367 5.546626 12.994738 3.016089 17.442063 .944966 21.399363 .291372 22.911034-1.267209 26.515805 3.879477 28.203757 5.044289 26.522372 6.807278 23.977528 10.572396 15.969624 16.339646 2.498655L14.039144 1.027485Z" fill="#b28b67" fill-rule="evenodd"/>
<path transform="matrix(1,0,0,-1,65.83789,86.89087)" d="M8.012274 1.177353 .226038 21.81997C-1.439283 25.582982 6.602861 28.0565 7.826746 26.30527 10.605344 22.329436 17.209429 6.645346 18.037266 5.460812L8.012274 1.177353Z" fill="#2f3676" fill-rule="evenodd"/>
<path transform="matrix(.760861,.648915,.609533,-.79276,51.507574,83.02022)" d="M.391096 2.144754C.172912 4.905447-.232446 14.46239 .173131 18.885945 .289678 20.157097 .412468 21.386097 .53621 22.53901 .904016 25.965868 7.190079 25.857544 6.690887 22.601855 5.447701 14.493902 3.259552 3.131077 3.10272 2.149265 2.882912 .773212 .528217 .409746 .391096 2.144754Z" fill="#b28b67" fill-rule="evenodd"/>
<path transform="matrix(.854436,.519557,.480695,-.876888,48.772069,88.33673)" d="M2.266244 8.975793C1.279184 8.975793 .124207 8.79123 .010566 7.810734 .00373 7.751748 0 7.6967 0 7.646796 0 7.049749 .193841 5.904317 .193841 5.904317 .868746 5.904317 12.324822 5.904317 12.324822 5.904317 12.324822 5.904317 12.797685 7.508602 11.778896 7.636521 10.760108 7.76444 10.086246 7.867522 10.086246 7.867522L5.199015 10.103447C4.679985 10.340905 4.067809 10.096484 3.855053 9.566848L3.799029 9.427382C3.799029 9.427382 2.855897 8.975793 2.266244 8.975793Z" fill="#e4e4e4" fill-rule="evenodd"/>
<path transform="matrix(1,0,0,-1,80.26807,89.528079)" d="M2.235917 2.901736C1.265434 2.901736 .140553 2.722362 .015051 1.760028 .005379 1.685869 0 1.617162 0 1.556071 0 .951536 .191247-.208263 .191247-.208263 .857121-.208263 12.15989-.208263 12.15989-.208263 12.15989-.208263 12.626425 1.416143 11.621269 1.545667 10.616115 1.67519 9.951271 1.779565 9.951271 1.779565L5.155856 4.031131C4.632481 4.276869 4.010385 4.028851 3.799639 3.490433L3.74819 3.35899C3.74819 3.35899 2.817679 2.901736 2.235917 2.901736Z" fill="#e4e4e4" fill-rule="evenodd"/>
<path transform="matrix(1,0,0,-1,42.95459,83.63794)" d="M20.30762 17.535965C20.30762 17.535965 10.600339 19.20155 7.303483 19.813805 1.038589 20.97725-.788307 24.52791 .291852 32.274904H11.834811C14.126099 31.578017 30.98259 23.654862 30.98259 23.654862 33.004468 22.59777 32.627927 19.480935 32.258367 18.454073 32.235757 18.391255 22.032874 .000034 22.032874 .000034L12.590245 6.33547 20.325354 16.789422C20.325354 16.789422 20.63177 17.439419 20.30762 17.535965Z" fill="#5c63ab" fill-rule="evenodd"/>
<path transform="matrix(1,0,0,-1,27.757813,67.60547)" d="M4.867876 6.450733C5.539645 7.901922 8.895987 26.578614 8.895987 26.578614L13.915667 26.558554C13.915667 26.558554 8.180944 6.774328 7.827318 5.841139 7.367946 4.628899 8.148253 2.867615 8.677364 1.673325 8.759221 1.48856 8.835066 1.317366 8.899378 1.163874 8.165205 .814056 7.812535 1.236887 7.440727 1.682661 7.02078 2.186152 6.576418 2.718912 5.530366 2.200705 5.126226 2.000496 4.743799 1.763792 4.37017 1.532534 3.079577 .733721 1.893966-.000116 .281107 1.059582 .02541 1.227581-.254792 1.860134 .422212 2.354441 2.108878 3.585939 4.539465 5.741283 4.867876 6.450733ZM47.144376 13.727969 40.650587 20.47359 38.49376 16.499707 45.24644 12.260406C46.93961 9.420307 47.93404 8.193157 48.22973 8.578957 48.479047 8.904249 48.36478 9.260786 48.25953 9.589193 48.177537 9.845024 48.101015 10.083784 48.2061 10.277409 48.446096 10.719586 49.80183 10.466358 51.078737 10.167477 52.35564 9.868595 52.060186 10.536509 51.788789 10.885097 50.581968 11.922147 49.033826 12.86977 47.144376 13.727969Z" fill="#b28b67" fill-rule="evenodd"/>
<path transform="matrix(.995689,.092759,.081886,-.996642,49.52943,55.319574)" d="M0 29.554743 1.946049 30.099122C6.020897 18.685046 22.668015 12.19561 24.0095 7.911819 24.501458 6.340841 23.48268 5.428734 24.08358 4.99221L21.680029 2.753357C21.200768 3.252636 20.353955 2.17893 18.359168 2.689199 16.36438 3.199471 1.139715 15.696524 0 29.554743Z" fill="#db2721" fill-rule="evenodd"/>
<path transform="matrix(1,0,0,-1,31.892579,63.98999)" d="M23.403483 37.136064C23.150685 28.080557 25.807242 22.86618 27.825407 18.904862 29.381485 15.850544 30.558039 13.541166 29.72886 10.790415 28.174983 5.635498 13.301793 .093983 10.72808 5.147018 9.696484 7.172379 9.222922 9.617752 9.16167 12.276711 8.512995 10.269028 7.970044 8.464264 7.59926 7.019306 7.20809 5.494896 6.150157 4.730148 5.352922 4.153851 4.804643 3.757515 4.379665 3.45031 4.379665 3.04644L1.007682 4.037567C1.100585 4.584511 .893465 5.017467 .643298 5.540409 .277591 6.304871-.180108 7.261631 .072983 9.047892 2.483432 26.060256 11.736649 35.195447 15.463832 38.24822 15.633019 39.580915 16.813473 40.5588 18.171839 40.457658L21.065159 40.24222C22.184916 40.158845 23.089112 39.367284 23.368502 38.33845L23.452349 38.322694C23.446524 38.215208 23.4411 38.10825 23.436072 38.001794 23.45781 37.836774 23.463768 37.66733 23.452464 37.495187 23.444416 37.372648 23.427886 37.25276 23.403483 37.136064Z" fill="#ff4133" fill-rule="evenodd"/>
</g>
</svg>
