<svg width="496" height="496" viewBox="0 0 496 496" fill="#203755" xmlns="http://www.w3.org/2000/svg">
<path d="M35.8251 152.369C175.646 152.369 315.468 152.369 459.526 152.369C459.617 201.075 459.708 249.781 459.802 299.962C459.842 315.336 459.882 330.711 459.923 346.55C459.943 365.337 459.943 365.337 459.947 374.134C459.951 380.272 459.967 386.411 459.992 392.55C460.023 400.387 460.031 408.225 460.025 416.062C460.026 418.934 460.035 421.806 460.052 424.678C460.179 447.139 458.486 462.807 443.734 479.925C432.092 491.787 419.059 495.024 403.458 494.937C402.07 494.944 400.682 494.95 399.252 494.957C395.428 494.974 391.604 494.969 387.779 494.96C383.644 494.954 379.508 494.969 375.373 494.981C367.282 495.002 359.192 495.003 351.101 494.997C344.522 494.992 337.943 494.994 331.363 495C330.426 495.001 329.488 495.002 328.521 495.003C326.616 495.004 324.71 495.006 322.805 495.008C304.951 495.024 287.098 495.018 269.245 495.004C252.929 494.993 236.614 495.008 220.299 495.036C203.526 495.065 186.753 495.077 169.98 495.069C160.571 495.065 151.163 495.067 141.754 495.088C133.745 495.106 125.735 495.106 117.726 495.086C113.643 495.076 109.561 495.073 105.479 495.091C101.044 495.111 96.609 495.093 92.1736 495.072C90.8974 495.084 89.6212 495.095 88.3063 495.107C72.6219 494.955 60.7347 488.855 49.3416 477.475C39.1252 465.854 35.2919 452.348 35.427 436.635C35.4242 435.415 35.4214 434.195 35.4185 432.938C35.413 428.868 35.4312 424.798 35.4493 420.728C35.4503 417.753 35.4499 414.779 35.4481 411.804C35.4474 404.66 35.4616 397.516 35.4829 390.373C35.5068 382.102 35.5093 373.832 35.512 365.561C35.5293 343.745 35.5755 321.928 35.6182 300.111C35.6865 251.356 35.7548 202.601 35.8251 152.369ZM163.818 197.582C160.037 203.562 159.782 208.174 160.508 215.326C163.099 221.119 166.342 224.121 171.542 227.205C175.412 228.261 179.033 228.546 183.017 228.56C184.199 228.566 185.38 228.573 186.598 228.58C188.525 228.582 188.525 228.582 190.492 228.584C191.855 228.59 193.217 228.596 194.621 228.602C198.351 228.617 202.08 228.625 205.81 228.631C208.144 228.634 210.478 228.639 212.812 228.644C220.125 228.661 227.438 228.672 234.751 228.677C243.173 228.682 251.595 228.703 260.017 228.737C266.54 228.763 273.063 228.775 279.586 228.776C283.476 228.778 287.365 228.785 291.255 228.806C295.599 228.829 299.943 228.824 304.288 228.816C306.202 228.833 306.202 228.833 308.155 228.849C319.881 228.797 319.881 228.797 330.008 223.104C334.494 217.475 335.236 213.666 335.149 206.464C334.695 201.993 333.207 199.625 330.43 196.32C324.507 191.3 319.72 190.24 312.334 190.214C311.152 190.207 309.971 190.2 308.753 190.194C306.825 190.192 306.825 190.192 304.859 190.189C303.496 190.184 302.134 190.178 300.73 190.172C297 190.157 293.271 190.148 289.541 190.143C287.207 190.14 284.873 190.135 282.539 190.129C275.226 190.113 267.913 190.102 260.6 190.097C252.178 190.092 243.756 190.071 235.334 190.037C228.811 190.011 222.288 189.999 215.765 189.997C211.875 189.996 207.986 189.989 204.096 189.968C199.752 189.944 195.408 189.95 191.063 189.957C189.149 189.941 189.149 189.941 187.196 189.924C178.688 189.971 169.721 190.174 163.818 197.582Z"/>
<path d="M34.6918 0.305401C35.8154 0.299162 35.8154 0.299162 36.9616 0.292797C39.4699 0.281766 41.9779 0.287584 44.4862 0.293352C46.3034 0.288919 48.1206 0.283461 49.9377 0.277064C54.9304 0.262545 59.9229 0.262867 64.9156 0.265663C70.3005 0.266147 75.6855 0.253054 81.0704 0.241801C91.6204 0.22209 102.17 0.215573 112.721 0.21425C121.296 0.213123 129.872 0.208249 138.448 0.200726C162.76 0.17983 187.073 0.168888 211.385 0.170667C213.352 0.170809 213.352 0.170809 215.358 0.170954C216.67 0.171051 217.982 0.171148 219.335 0.171248C240.604 0.172212 261.873 0.14951 283.142 0.116058C304.981 0.081982 326.819 0.0655936 348.657 0.0676435C360.918 0.0684312 373.178 0.0619087 385.439 0.0363782C395.879 0.0147799 406.318 0.00961261 416.757 0.0257242C422.083 0.033473 427.408 0.0335988 432.733 0.0130235C437.612 -0.00563056 442.49 -0.00224703 447.368 0.0184427C449.13 0.0220859 450.891 0.0177703 452.653 0.00453953C465.042 -0.0823253 475.73 0.994956 485.143 10.4529C493.033 19.8938 494.895 29.4256 494.921 41.8147C494.928 43.0403 494.936 44.266 494.943 45.5287C494.954 48.1171 494.96 50.7055 494.959 53.2938C494.964 57.2251 495.004 61.1548 495.046 65.0858C495.052 67.6097 495.057 70.1336 495.059 72.6575C495.075 73.8194 495.091 74.9814 495.107 76.1785C495.041 86.9541 492.334 96.3864 485.402 104.371C478.074 111.459 470.288 114.785 460.412 114.797C459.288 114.803 459.288 114.803 458.141 114.81C455.632 114.821 453.123 114.815 450.613 114.809C448.795 114.813 446.977 114.819 445.159 114.825C440.165 114.84 435.17 114.839 430.175 114.837C424.788 114.836 419.401 114.849 414.014 114.861C403.459 114.88 392.905 114.887 382.351 114.888C373.773 114.889 365.195 114.894 356.616 114.902C332.298 114.922 307.98 114.933 283.662 114.932C281.695 114.931 281.695 114.931 279.689 114.931C278.376 114.931 277.063 114.931 275.711 114.931C254.434 114.93 233.156 114.953 211.879 114.986C190.035 115.02 168.191 115.037 146.346 115.035C134.081 115.034 121.816 115.04 109.551 115.066C99.1087 115.088 88.6665 115.093 78.2242 115.077C72.8967 115.069 67.5694 115.069 62.2419 115.089C57.3629 115.108 52.4844 115.105 47.6054 115.084C45.8423 115.08 44.0792 115.085 42.3162 115.098C33.1199 115.162 25.1587 115.024 17.0963 109.747C16.2036 109.19 15.311 108.633 14.3913 108.06C7.08935 102.254 2.93199 95.4605 0.55628 86.0214C0.212669 81.7773 0.194773 77.5461 0.185853 73.2877C0.178513 72.062 0.171172 70.8364 0.16361 69.5736C0.15247 66.9852 0.147271 64.3969 0.147626 61.8085C0.142816 57.8772 0.102773 53.9475 0.0609414 50.0165C0.0544675 47.4926 0.0500928 44.9688 0.0480195 42.4449C0.0321731 41.2829 0.0163266 40.1209 0 38.9238C0.0655052 28.1482 2.77281 18.7159 9.70496 10.7309C17.0311 3.64468 24.8171 0.317797 34.6918 0.305401Z"/>
</svg>
