<svg width="611" height="611" viewBox="0 0 611 611" fill="#848484" xmlns="http://www.w3.org/2000/svg">
  <path d="M81.9667 2.41056C73.0333 5.47723 63.1667 13.0772 57.8333 21.0772C54.6333 25.6106 46.7667 47.2106 28.7667 100.677C15.3 140.944 3.3 178.677 2.1 184.277C-0.7 198.411 -0.7 241.344 2.1 253.344C3.3 258.144 6.9 267.611 10.3667 274.544C21.3 296.811 41.9667 314.411 66.1 322.144C95.9667 331.744 130.367 324.144 153.7 302.677L162.767 294.411L171.7 302.677C187.833 317.344 212.233 326.677 234.1 326.677C256.1 326.677 280.5 317.211 296.5 302.677L305.567 294.411L313.167 301.611C348.767 335.344 406.9 334.544 441.433 299.744L447.433 293.744L456.767 302.277C472.767 317.211 497.167 326.677 519.167 326.677C523.833 326.677 532.367 325.477 538.233 324.011C566.367 316.944 589.033 298.544 601.433 272.677C609.7 255.344 611.167 245.877 610.367 213.611C609.567 180.144 611.3 186.544 580.1 94.6772C555.167 20.9439 553.567 17.4772 540.9 8.67723C527.433 -0.656104 543.833 0.0105624 304.9 0.0105624C101.3 0.143896 88.3667 0.277229 81.9667 2.41056ZM154.767 354.144C143.033 360.144 124.367 366.144 111.7 367.877C86.7666 371.344 64.6332 368.944 44.0999 360.544C37.8332 357.877 31.6999 355.477 30.3666 355.077C28.0999 354.411 27.9666 358.944 28.3666 462.811L28.7666 571.344L31.8332 578.944C35.9666 589.077 46.3666 600.411 56.6332 605.744L64.7666 610.011L124.367 610.411L183.967 610.811L184.367 534.944L184.767 459.077L189.433 449.877C192.767 443.211 195.967 439.344 200.767 435.744C213.167 426.411 209.567 426.677 305.567 426.677C389.567 426.677 392.233 426.811 399.3 429.477C408.633 432.944 417.833 441.744 422.5 451.744L426.1 459.344L426.5 534.944L426.9 610.677H483.967C547.033 610.677 548.9 610.411 561.033 602.277C569.7 596.277 576.9 586.411 580.1 576.144C582.633 568.011 582.767 563.744 582.767 460.544C582.767 401.611 582.5 353.344 582.1 353.344C581.7 353.344 577.967 355.077 573.7 357.211C541.167 373.611 494.633 372.544 458.233 354.677L447.7 349.477L437.567 354.544C399.967 373.477 355.567 373.877 317.033 355.611L304.633 349.744L295.3 354.411C256.367 374.144 211.833 374.011 172.5 354.277L163.3 349.744L154.767 354.144Z"/>
  <path d="M228.9 472.277C227.033 474.944 226.767 483.877 226.767 542.944V610.677H305.433H384.1V542.944C384.1 483.877 383.833 474.944 381.967 472.277L379.967 469.344H305.433H230.9L228.9 472.277Z" />
</svg>

