<svg version="1.0" xmlns="http://www.w3.org/2000/svg"
 width="512.000000pt" height="512.000000pt" viewBox="0 0 512.000000 512.000000"
 preserveAspectRatio="xMidYMid meet">

<g transform="translate(0.000000,512.000000) scale(0.100000,-0.100000)"
fill="#273655" stroke="none">
<path d="M1040 4921 c-19 -10 -48 -35 -65 -55 l-30 -38 -3 -524 -3 -524 -292
0 c-327 0 -370 -6 -460 -63 -68 -44 -113 -96 -151 -177 l-31 -65 -3 -914 c-2
-599 1 -932 8 -969 26 -141 126 -254 268 -303 49 -17 87 -19 358 -19 l303 0 3
-489 3 -489 30 -38 c17 -20 46 -45 65 -55 33 -18 92 -19 1520 -19 1428 0 1487
1 1520 19 19 10 48 35 65 55 l30 38 3 489 3 489 303 0 c271 0 309 2 358 19
142 49 242 162 268 303 7 37 10 370 8 969 l-3 914 -31 65 c-38 81 -83 133
-151 177 -90 57 -133 63 -460 63 l-292 0 -3 524 -3 524 -30 38 c-17 20 -46 45
-65 55 -33 18 -92 19 -1520 19 -1428 0 -1487 -1 -1520 -19z m2800 -731 l0
-410 -1280 0 -1280 0 0 410 0 410 1280 0 1280 0 0 -410z m233 -1084 c77 -32
124 -131 98 -208 -13 -40 -64 -92 -104 -107 -17 -7 -126 -11 -278 -11 -275 0
-295 3 -342 59 -55 66 -56 155 -2 219 49 59 66 62 343 62 190 0 261 -3 285
-14z m-233 -1886 l0 -700 -1280 0 -1280 0 0 700 0 700 1280 0 1280 0 0 -700z"/>
</g>
</svg>
