<svg width="513" height="513" viewBox="0 0 513 513" fill="#203755" xmlns="http://www.w3.org/2000/svg">
  <path d="M232.955 0.120965C234.253 0.116724 234.253 0.116724 235.578 0.112397C240.179 0.0975168 244.78 0.0882226 249.381 0.0838559C253.093 0.0795142 256.805 0.0657754 260.517 0.0428402C320.029 -0.31717 387.613 0.603893 433.666 43.6171C473.288 84.056 481.53 150.217 492.568 203.262C492.739 204.083 492.91 204.904 493.087 205.75C496.793 223.54 500.397 241.345 503.662 259.223C503.899 260.518 504.137 261.814 504.381 263.149C506.837 276.802 508.8 290.535 510.318 304.324C510.405 305.099 510.492 305.875 510.582 306.673C512.134 320.791 512.662 334.793 512.634 348.992C512.63 352.322 512.654 355.651 512.679 358.98C512.792 397.034 505.146 434.147 479.318 463.324C478.399 464.368 478.399 464.368 477.462 465.433C445.684 499.312 392.572 506.146 348.88 510.012C348.192 510.073 347.504 510.133 346.794 510.196C327.215 511.9 307.722 512.495 288.072 512.527C286.294 512.531 286.294 512.531 284.48 512.536C278.185 512.551 271.89 512.56 265.595 512.564C260.497 512.569 255.398 512.582 250.3 512.605C84.4517 513.335 84.4517 513.335 36.0913 466.156C19.5538 449.269 9.8324 429.176 4.5054 406.262C4.31043 405.425 4.11546 404.588 3.91458 403.726C0.29102 386.96 -0.0520812 370.288 0.00539936 353.199C0.00755451 352.047 0.00970966 350.896 0.0119301 349.709C0.0668818 331.378 0.810577 313.5 3.3179 295.324C3.48467 294.019 3.65144 292.713 3.82327 291.369C12.9046 220.471 24.8152 134.508 59.3179 71.3241C59.9031 70.2387 60.4884 69.1533 61.0913 68.035C64.8962 61.2344 69.2527 55.2351 74.3179 49.3241C74.9947 48.5017 75.6714 47.6792 76.3687 46.8319C105.82 12.2659 155.695 4.86039 198.318 1.32409C209.875 0.440535 221.368 0.147175 232.955 0.120965ZM131.884 117.168C125.919 125.379 128.674 142.343 130.036 151.949C135.493 183.66 151.859 212.568 178.068 231.574C196.688 244.501 217.776 252.695 240.318 255.324C240.987 255.404 241.656 255.484 242.345 255.566C274.847 259.135 310.597 250.307 336.568 230.074C361.985 209.499 379.487 180.608 383.119 147.713C383.522 142.878 383.682 138.049 383.755 133.199C383.778 132.227 383.8 131.254 383.824 130.252C383.799 123.063 382.461 118.861 377.607 113.398C372.929 109.5 369.154 107.645 363.005 106.949C356.488 107.612 351.29 109.836 346.88 114.762C342.168 120.548 341.924 126.46 341.443 133.637C339.665 156.046 333.138 176.551 316.318 192.324C295.502 208.838 270.275 215.895 243.861 212.859C222.528 209.975 202.327 200.85 188.361 183.957C176.487 167.763 171.894 149.76 170.943 129.949C170.422 122.194 168.679 117.253 162.943 111.949C151.626 103.089 140.296 107.291 131.884 117.168Z"/>
</svg>
