<svg width="513" height="513" viewBox="0 0 513 513" fill="#29292A" xmlns="http://www.w3.org/2000/svg">

<g transform="translate(0.000000,512.000000) scale(0.100000,-0.100000)"
 stroke="none">
<path d="M2028 5110 c-69 -21 -133 -84 -154 -150 -4 -14 -39 -184 -79 -379
l-71 -355 -94 -55 -95 -54 -361 121 c-221 75 -375 122 -400 122 -48 0 -130
-38 -166 -76 -31 -34 -499 -843 -516 -893 -18 -52 -14 -111 12 -167 20 -44 64
-87 310 -303 l286 -252 0 -109 0 -109 -286 -252 c-246 -216 -290 -259 -310
-303 -26 -56 -30 -115 -12 -167 17 -50 485 -859 516 -893 36 -38 118 -76 166
-76 25 0 179 47 400 122 l361 121 95 -54 94 -55 71 -355 c40 -195 75 -365 79
-379 15 -47 59 -101 105 -128 l46 -27 535 0 535 0 46 27 c46 27 90 81 105 128
4 14 39 184 79 379 l71 355 94 55 95 54 361 -121 c221 -75 375 -122 400 -122
48 0 130 38 166 76 31 34 499 843 516 893 18 52 14 111 -12 167 -20 44 -64 87
-310 303 l-286 252 0 109 0 109 286 252 c246 216 290 259 310 303 26 56 30
115 12 167 -17 50 -485 859 -516 893 -36 38 -118 76 -166 76 -25 0 -179 -47
-400 -122 l-361 -121 -95 54 -94 55 -71 355 c-40 195 -75 365 -79 379 -15 47
-59 101 -105 128 l-46 27 -520 2 c-286 1 -532 -2 -547 -7z m757 -1648 c132
-37 199 -67 300 -135 152 -103 281 -267 344 -439 46 -124 55 -179 55 -328 0
-149 -9 -204 -55 -328 -90 -245 -296 -451 -541 -541 -124 -46 -179 -55 -328
-55 -149 0 -204 9 -328 55 -245 90 -451 296 -541 541 -46 124 -55 179 -55 328
0 149 9 204 55 328 90 245 296 451 541 541 55 21 151 46 203 55 67 10 281 -3
350 -22z"/>
</g>
</svg>
