<svg width="683" height="683" viewBox="0 0 683 683" fill="none" xmlns="http://www.w3.org/2000/svg">
<g clip-path="url(#clip0_1462_5878)">
<path d="M308.667 1.46673C202.4 12.2667 108.533 70.5334 51.7333 160.933C-10.9334 260.533 -16.9334 388.267 35.9999 493.6C96.2666 613.467 220.4 687.333 353.333 682.133C404.8 680.267 448.533 669.2 493.333 646.8C574.667 606.133 636.933 534.267 665.333 448.267C677.6 411.2 682 382.8 682 341.333C682 301.2 677.733 272.933 666.533 238C639.867 154.533 582 84.2667 504.667 41.7334C470.133 22.6667 430 9.3334 388.667 3.20006C372.4 0.800062 325.067 -0.266605 308.667 1.46673ZM385.333 34.0001C451.067 43.3334 513.2 74.5334 560.667 122C682.4 243.733 681.867 440.667 559.467 562C490.933 629.867 394.533 662.133 300 648.533C207.467 635.2 128.8 584.4 78.6666 505.467C68.2666 488.8 54.3999 459.2 47.5999 438.667C36.6666 406 31.9999 376.267 31.9999 340.133C31.9999 204.533 120.133 85.0667 249.733 44.8001C267.467 39.2001 293.2 33.8667 310.667 32.1334C327.867 30.4001 366.667 31.3334 385.333 34.0001Z" fill="#1E90FF"/>
<path d="M303.067 214.267C279.733 222.8 268 227.6 268 228.933C268 230.8 282.267 281.467 282.933 282C283.2 282.133 293.867 279.333 306.667 275.867C319.467 272.267 330.4 269.333 331.067 269.333C331.6 269.333 332 317.067 332 375.333V481.333H364.667H397.333V341.333V201.333L367.733 201.467H338L303.067 214.267Z" fill="#1E90FF"/>
</g>
<defs>
<clipPath id="clip0_1462_5878">
<rect width="682.667" height="682.667" fill="white"/>
</clipPath>
</defs>
</svg>
